<?xml version="1.0" encoding="utf-8"?>
<!-- Generator: Adobe Illustrator 15.1.0, SVG Export Plug-In . SVG Version: 6.00 Build 0)  -->
<!DOCTYPE svg PUBLIC "-//W3C//DTD SVG 1.1//EN" "http://www.w3.org/Graphics/SVG/1.1/DTD/svg11.dtd">
<svg version="1.1" id="Layer_1" xmlns="http://www.w3.org/2000/svg" xmlns:xlink="http://www.w3.org/1999/xlink" x="0px" y="0px"
	 width="454.599px" height="59.33px" viewBox="0 0 454.599 59.33" enable-background="new 0 0 454.599 59.33" xml:space="preserve">
<path opacity="0.5" fill="#FFFFFF" d="M135.513,14.408c0.256-0.748,0.229-1.429,0.193-2.114c-0.015-0.277-0.103-0.616,0.244-0.756
	c0.331-0.134,0.525,0.134,0.73,0.336c0.99,0.978,2.119,1.738,3.357,2.389c2.248,1.183,4.35,2.591,5.947,4.624
	c0.705,0.897,1.174,1.931,1.623,2.97c0.135,0.313,0.24,0.64,0.372,0.996c0.612-0.896,0.875-1.876,1.103-2.867
	c0.059-0.258,0.088-0.501,0.406-0.538c0.347-0.04,0.498,0.196,0.549,0.472c0.283,1.554,1.031,2.96,1.406,4.489
	c0.258,1.055,0.658,2.08,1.057,3.095c1.477,3.765,1.627,7.62,0.838,11.542c-0.249,1.24-0.904,2.318-1.545,3.385
	c-0.371,0.619-0.641,1.295-1.154,1.844c-0.479,0.511-0.998,0.874-1.666,1.055c-0.616,0.168-1.171,0.449-1.666,0.871
	c-0.705,0.602-1.535,1.076-2.377,1.377c-2.609,0.931-5.248,1.811-8.105,1.453c-1.18-0.146-2.375-0.126-3.549-0.363
	c-1.023-0.207-1.938-0.665-2.725-1.301c-1.217-0.981-2.558-1.771-3.886-2.562c-1.091-0.65-2.405-0.749-3.651-0.97
	c-0.25-0.044-0.521-0.034-0.623-0.319c-0.113-0.318,0.163-0.434,0.354-0.582c0.467-0.368,0.93-0.742,1.408-1.095
	c0.362-0.267,0.383-0.476-0.029-0.711c-0.451-0.256-0.879-0.55-1.325-0.812c-1.757-1.032-2.923-2.544-3.646-4.431
	c-0.164-0.426-0.395-0.836-0.653-1.213c-0.694-1.012-0.835-2.207-1.147-3.342c-0.143-0.522-0.408-0.941-0.771-1.317
	c-0.388-0.401-0.764-0.812-1.059-1.287c-0.28-0.451-0.192-0.732,0.282-0.979c0.564-0.294,1.202-0.177,1.795-0.31
	c0.129-0.029,0.27-0.001,0.402-0.015c1.079-0.109,1.273-0.289,0.988-1.308c-0.518-1.845-0.276-3.691-0.188-5.547
	c0.076-1.597-0.057-3.188-0.54-4.719c-0.245-0.776-0.341-1.576-0.491-2.361c-0.162-0.846-0.43-1.615-0.887-2.332
	c-0.127-0.2-0.246-0.408-0.051-0.628c0.187-0.211,0.414-0.161,0.636-0.067c2.231,0.951,4.558,1.046,6.943,0.893
	c1.776-0.114,3.569-0.145,5.346,0.052c1.499,0.166,2.807,0.858,4.032,1.69C134.372,13.487,134.972,13.861,135.513,14.408z
	 M128.637,22.9c0.05,0.03,0.101,0.046,0.132-0.019c0.005-0.009-0.043-0.043-0.068-0.065c-0.326-0.647-0.697-1.242-1.254-1.745
	c-0.675-0.612-1.283-1.29-1.826-2.049c-0.68-0.949-1.742-1.55-2.725-2.149c-1.676-1.021-3.004-2.343-4.053-3.977
	c-0.111-0.172-0.191-0.371-0.408-0.448c-0.019-0.023-0.038-0.047-0.057-0.07c-0.005,0.017-0.018,0.038-0.013,0.051
	c0.021,0.051,0.05,0.051,0.079,0.005c-0.042,0.983,0.224,1.933,0.488,2.846c0.52,1.796,0.76,3.615,0.645,5.46
	c-0.117,1.902-0.268,3.783,0.285,5.65c0.293,0.989,0.196,1.118-0.751,1.522c-0.122,0.052-0.253,0.096-0.384,0.113
	c-0.664,0.087-1.331,0.161-1.996,0.247c-0.13,0.017-0.313,0.028-0.37,0.111c-0.105,0.154,0.079,0.272,0.163,0.388
	c0.135,0.186,0.279,0.368,0.443,0.529c0.588,0.581,0.956,1.268,1.191,2.066c0.195,0.662,0.166,1.396,0.536,1.99
	c0.761,1.223,1.253,2.58,1.974,3.824c0.439,0.76,0.968,1.418,1.703,1.896c0.867,0.564,1.742,1.118,2.618,1.669
	c0.271,0.17,0.462,0.378,0.327,0.707c-0.161,0.389-0.331,0.779-0.725,1.009c-0.294,0.172-0.555,0.386-0.805,0.712
	c0.114,0.024,0.182,0.035,0.247,0.053c0.999,0.257,2.076,0.302,2.974,0.842c1.266,0.761,2.516,1.561,3.691,2.449
	c1.154,0.873,2.393,1.425,3.832,1.527c0.805,0.058,1.609,0.111,2.412,0.184c2.041,0.184,4.028-0.08,5.938-0.801
	c0.64-0.241,1.262-0.529,1.909-0.763c0.399-0.144,0.925-0.152,0.839-1.044c-0.09-0.934-0.454-1.69-0.815-2.451
	c-0.628-1.322-1.729-2.336-2.588-3.514c-0.269-0.369-0.697-0.336-1.014-0.074c-0.65,0.538-1.192,1.188-1.683,1.875
	c-0.724,1.014-1.67,1.417-2.901,1.134c-0.332-0.077-0.679-0.142-1.007,0.05c-0.15,0.088-0.318,0.194-0.45-0.009
	c-0.104-0.161,0.027-0.29,0.114-0.411c0.418-0.594,1.037-0.455,1.579-0.342c0.727,0.153,1.3-0.039,1.765-0.562
	c0.525-0.591,1.008-1.222,1.546-1.88c-0.51,0-0.962,0.068-1.386-0.015c-0.836-0.163-1.566,0.177-2.331,0.373
	c-0.659,0.169-1.337,0.265-1.991,0.084c-0.558-0.153-1.051-0.11-1.554,0.132c-0.541,0.262-1.104,0.396-1.717,0.404
	c-0.513,0.007-1.024,0.099-1.48,0.403c-0.29,0.194-0.652,0.216-1.001,0.217c-0.12,0-0.238-0.042-0.266-0.175
	c-0.029-0.139-0.002-0.279,0.154-0.331c0.931-0.305,1.736-0.999,2.807-0.878c0.402,0.045,0.793-0.049,1.22-0.277
	c-0.215-0.056-0.343-0.098-0.474-0.121c-0.835-0.157-1.621-0.451-2.529-0.336c-1.336,0.168-2.695,0.083-4.008-0.314
	c-0.156-0.047-0.347-0.152-0.415-0.285c-0.297-0.578-0.815-0.719-1.386-0.752c-0.698-0.041-1.301-0.289-1.826-0.746
	c-0.146-0.128-0.241-0.252-0.146-0.443c0.117-0.238,0.278-0.121,0.433-0.044c0.663,0.331,1.378,0.454,2.107,0.499
	c0.298,0.02,0.579,0.074,0.793,0.289c0.752,0.758,1.634,0.419,2.534,0.363c-0.268-0.393-0.564-0.659-0.873-0.919
	c-0.146-0.124-0.186-0.301-0.059-0.464c0.133-0.172,0.262-0.055,0.397,0.025c0.336,0.197,0.612,0.456,0.856,0.758
	c0.537,0.664,1.197,1.051,2.094,0.957c0.521-0.054,1.07,0.049,1.521,0.244c1.021,0.441,2.075,0.498,3.147,0.528
	c0.32,0.009,0.618-0.062,0.908-0.185c-0.45-0.661-1.042-1.049-1.74-1.324c-0.444-0.175-0.822-0.487-1.142-0.856
	c-0.143-0.165-0.326-0.331-0.122-0.538c0.206-0.209,0.357,0.035,0.475,0.146c0.4,0.377,0.869,0.616,1.381,0.802
	c0.455,0.164,0.868,0.424,1.18,0.795c0.818,0.975,1.744,1.233,2.949,0.822c0.678-0.232,1.346-0.523,2.216-0.492
	c-0.772-1.02-1.294-2.113-2.112-3.002c-0.76-0.826-1.422-1.719-1.893-2.734c-0.189-0.408-0.486-0.457-0.78-0.312
	c-0.819,0.406-1.724,0.757-2.266,1.517c-0.762,1.068-1.789,1.121-2.915,1.006c-0.162-0.016-0.315-0.046-0.339-0.238
	c-0.022-0.188,0.116-0.266,0.259-0.337c0.32-0.159,0.662-0.194,1.012-0.161c0.474,0.044,0.861-0.096,1.171-0.474
	c0.282-0.345,0.668-0.573,1.018-0.841c0.119-0.092,0.308-0.145,0.286-0.471c-1.432,0.744-2.768,0.623-4.016-0.321
	c-0.029-0.022-0.067-0.042-0.104-0.047c-0.232-0.03-0.434-0.097-0.706-0.043c-1.716,0.344-3.432,0.706-5.181,0.855
	c-0.117,0.011-0.236,0.017-0.293-0.116c-0.057-0.13,0.018-0.225,0.112-0.293c0.253-0.186,0.532-0.302,0.854-0.289
	c1.254,0.049,2.439-0.379,3.693-0.486c-0.115-0.174-0.27-0.091-0.39-0.144c-1.126-0.493-2.233-1.051-3.538-0.754
	c-0.367,0.083-0.773,0.061-1.138-0.086c-0.71-0.287-1.456-0.307-2.202-0.368c-0.576-0.046-1.145,0.149-1.721,0.008
	c-0.19-0.046-0.421-0.049-0.41-0.305c0.012-0.264,0.236-0.264,0.436-0.242c1.48,0.168,2.998-0.413,4.457,0.215
	c0.028,0.012,0.085-0.044,0.162-0.087c-0.219-0.293-0.451-0.549-0.619-0.843c-0.258-0.449-0.621-0.726-1.121-0.817
	c-0.346-0.063-0.652-0.214-0.954-0.377c-0.162-0.087-0.483-0.085-0.34-0.401c0.136-0.297,0.369-0.176,0.588-0.076
	c0.384,0.174,0.778,0.309,1.19,0.41c0.488,0.121,0.822,0.47,1.098,0.88c0.181,0.271,0.371,0.536,0.57,0.794
	c0.148,0.193,1.941,0.698,2.165,0.621c0.036-0.012,0.065-0.041,0.099-0.058c0.657-0.337,1.156-0.275,1.709,0.261
	c0.725,0.706,1.689,0.808,2.65,1.169c-0.107-0.362-0.291-0.539-0.488-0.677c-0.764-0.537-1.534-1.066-2.318-1.572
	c-0.165-0.106-0.305-0.185-0.23-0.384c0.076-0.205,0.28-0.2,0.444-0.154c0.141,0.039,0.284,0.125,0.388,0.228
	c0.235,0.234,0.517,0.388,0.795,0.561c0.711,0.441,1.467,0.819,1.953,1.567c0.295,0.456,0.902,0.556,1.289,0.338
	c0.551-0.309,1.168-0.279,1.703-0.549c0.111-0.056,0.307-0.011,0.314-0.181c0.005-0.083-0.111-0.186-0.193-0.258
	c-0.617-0.548-1.247-1.082-1.859-1.636c-1.248-1.13-2.588-2.17-3.538-3.593c-0.495-0.741-0.486-0.734-1.257-0.361
	c-0.535,0.259-1.101,0.469-1.543,0.88c-0.68,0.63-1.439,0.594-2.191,0.228c-0.363-0.177-0.699-0.374-1.112-0.401
	c-0.132-0.009-0.278-0.038-0.294-0.215c-0.018-0.186,0.105-0.275,0.256-0.337c0.346-0.142,0.715-0.099,1.006,0.069
	c0.814,0.47,1.536,0.474,2.256-0.192c0.393-0.364,0.997-0.299,1.481-0.557c-0.89-0.541-1.83-0.882-2.718-1.326
	c-0.951-0.476-1.879-0.565-2.876-0.304c-0.513,0.134-0.987,0.021-1.444-0.217c-0.173-0.09-0.281-0.215-0.204-0.414
	c0.086-0.222,0.289-0.203,0.437-0.116c0.775,0.459,1.5-0.038,2.376-0.015c-0.335-0.381-0.547-0.675-0.667-1.021
	c-0.039-0.11-0.086-0.234-0.225-0.228c-0.699,0.03-1.225-0.376-1.796-0.684c-0.205-0.11-0.496-0.136-0.354-0.45
	c0.143-0.314,0.417-0.366,0.726-0.199c0.27,0.145,0.541,0.284,0.812,0.425c0.047,0.06,0.107,0.083,0.164,0.025
	c0.012-0.012-0.031-0.079-0.05-0.12c-0.653-0.654-1.008-1.578-1.876-2.042c-0.201-0.107-0.346-0.319-0.268-0.585
	c0.049-0.164,0.249-0.326,0.326-0.187c0.281,0.504,0.941,0.526,1.209,1.011c0.254,0.459,0.637,0.817,0.926,1.241
	c0.405,0.595,1.007,1.051,1.248,1.767c0.086,0.258,0.317,0.424,0.525,0.597C125.745,21.767,127.339,22.048,128.637,22.9z
	 M134.655,26.644c0.229-0.99,0.709-1.975,0.436-2.943c-0.264-0.939,0.047-1.737,0.205-2.588c0.027-0.151,0.084-0.384,0.316-0.334
	c0.217,0.047,0.213,0.271,0.172,0.431c-0.248,0.977-0.172,1.946-0.09,2.94c0.074,0.912-0.235,1.817-0.465,2.71
	c-0.08,0.308-0.211,0.664,0.1,0.902c1.259,0.965,2.289,2.149,3.294,3.359c0.21,0.253,0.384,0.558,0.746,0.667
	c0.067-0.692,0.231-1.329,0.516-1.915c0.468-0.963,0.425-2.009,0.571-3.024c0.021-0.146-0.036-0.271-0.127-0.37
	c-0.655-0.713-1.051-1.668-1.979-2.132c-0.195-0.097-0.27-0.317-0.378-0.498c-0.501-0.841-0.62-1.85-1.17-2.672
	c-0.095-0.141-0.104-0.353,0.091-0.452c0.193-0.097,0.27,0.083,0.346,0.211c0.307,0.509,0.604,1.015,0.738,1.612
	c0.118,0.522,0.311,1.105,0.728,1.398c0.686,0.483,1.167,1.096,1.608,1.774c0.075,0.117,0.144,0.266,0.349,0.271
	c0.033-0.763,0.087-1.494-0.19-2.223c-0.321-0.842-0.312-1.732-0.191-2.614c0.025-0.187-0.01-0.318-0.083-0.482
	c-0.379-0.854-0.847-1.675-1.046-2.602c-0.043-0.202-0.135-0.479,0.121-0.552c0.266-0.076,0.309,0.219,0.38,0.41
	c0.243,0.657,0.481,1.317,0.736,2.016c0.573-1.128,0.354-2.34,0.677-3.609c0.404,0.825,0.681,1.5,0.496,2.272
	c-0.102,0.429-0.219,0.854-0.32,1.284c-0.18,0.769-0.283,1.545-0.297,2.483c0.45-0.562,0.54-1.141,0.907-1.562
	c0.354-0.406,0.493-0.902,0.534-1.432c0.026-0.346,0.075-0.689,0.264-0.991c0.063-0.1,0.154-0.185,0.284-0.139
	c0.095,0.034,0.16,0.12,0.138,0.227c-0.195,0.922-0.042,1.921-0.723,2.736c-0.364,0.436-0.608,0.974-0.893,1.473
	c-0.244,0.428-0.367,0.867-0.126,1.355c0.128,0.258,0.131,0.556,0.132,0.847c0,1.408-0.205,2.792-0.477,4.167
	c-0.17,0.859-0.197,0.992-0.074,1.435c0.293-0.921,0.812-1.678,1.393-2.394c0.529-0.654,0.794-1.393,0.803-2.227
	c0.004-0.33,0.141-0.59,0.367-0.815c0.111-0.11,0.239-0.257,0.391-0.146c0.135,0.099,0.092,0.298,0.019,0.428
	c-0.138,0.243-0.192,0.49-0.193,0.768c-0.005,0.746-0.202,1.438-0.646,2.048c-0.417,0.574-0.849,1.139-1.251,1.722
	c-0.568,0.82-0.996,1.675-0.654,2.726c0.094,0.286,0.16,0.621,0.105,0.908c-0.139,0.723,0.375,1.248,0.593,1.818
	c0.287,0.752,0.929,1.412,1.536,1.988c0.933,0.884,1.561,1.969,2.248,3.021c0.119,0.183,0.182,0.404,0.386,0.548
	c0.501-1.354,0.493-1.867-0.275-2.66c-0.665-0.686-0.854-1.521-1.014-2.389c-0.128-0.698-0.276-1.387-0.593-2.027
	c-0.076-0.154-0.214-0.323-0.03-0.461c0.202-0.15,0.343,0.011,0.478,0.162c0.471,0.533,0.6,1.217,0.682,1.863
	c0.154,1.202,0.647,2.207,1.504,3.138c0.465-1.636,0.988-3.226,0.883-4.941c-0.021-0.369-0.156-0.659-0.426-0.906
	c-0.365-0.335-0.562-0.747-0.645-1.248c-0.215-1.33-0.059-2.724-0.664-3.989c-0.023-0.048,0-0.119-0.021-0.169
	c-0.105-0.249-0.081-0.491,0.187-0.571c0.295-0.088,0.325,0.213,0.385,0.396c0.347,1.072,0.76,2.128,0.61,3.3
	c-0.056,0.432,0.167,0.84,0.267,1.259c-0.051-0.893,0.033-1.774,0.283-2.624c0.201-0.685,0.389-1.358,0.355-2.081
	c-0.006-0.143,0.062-0.295,0.121-0.433c0.046-0.106,0.135-0.199,0.271-0.157c0.097,0.029,0.168,0.106,0.162,0.214
	c-0.043,0.719,0.227,1.421-0.027,2.165c-0.347,1.013-0.554,2.056-0.334,3.159c0.195,0.974,0.334,1.965,0.242,2.971
	c-0.031,0.34-0.199,0.675-0.08,1.139c0.618-0.926,1.271-1.707,1.34-2.778c0.027-0.422,0.26-0.757,0.488-1.09
	c0.078-0.113,0.195-0.196,0.346-0.116c0.124,0.066,0.144,0.199,0.098,0.301c-0.31,0.691-0.236,1.492-0.588,2.157
	c-0.537,1.019-1.167,1.982-1.947,2.839c-0.118,0.129-0.209,0.26-0.261,0.436c-0.261,0.881-0.564,1.749-0.801,2.637
	c-0.253,0.948-0.618,1.905-0.089,2.889c0.125,0.23,0.143,0.504,0.203,0.754c0.083,0.335,0.232,0.93,0.682,0.796
	c0.878-0.263,1.839-0.472,2.398-1.333c0.335-0.514,0.672-1.028,0.965-1.566c0.54-0.99,1.148-1.962,1.371-3.086
	c0.752-3.807,0.562-7.549-0.84-11.2c-0.528-1.376-1.027-2.764-1.387-4.197c-0.154-0.611-0.5-1.139-0.763-1.796
	c-0.446,0.904-0.853,1.722-1.255,2.542c-0.096,0.193-0.186,0.399-0.446,0.378c-0.249-0.02-0.355-0.195-0.396-0.425
	c-0.022-0.132-0.055-0.262-0.086-0.393c-0.361-1.575-1.033-3.028-2.004-4.295c-1.457-1.9-3.367-3.289-5.494-4.365
	c-1.118-0.565-2.238-1.108-3.1-2.051c-0.053-0.057-0.119-0.096-0.188-0.059c-0.091,0.613-0.188,1.216-0.266,1.821
	c-0.033,0.259,0.075,0.574-0.221,0.726c-0.337,0.173-0.598-0.064-0.816-0.27c-0.617-0.582-1.314-1.062-1.998-1.554
	c-0.891-0.64-1.87-1.117-2.939-1.394c-1.436-0.372-2.9-0.188-4.351-0.219c-1.745-0.038-3.49,0.149-5.237,0.027
	c-0.533-0.038-1.033-0.327-1.642-0.225c0.138,0.25,0.249,0.524,0.452,0.547c0.411,0.047,0.436,0.345,0.572,0.616
	c0.434,0.869,1.051,1.583,1.865,2.13c0.566,0.381,1.215,0.588,1.752,1.066c0.838,0.744,1.762,1.424,2.902,1.775
	c-0.086-0.427-0.225-0.835-0.236-1.247c-0.018-0.595-0.312-0.88-0.833-1.086c-0.692-0.273-1.393-0.566-1.863-1.194
	c-0.132-0.176-0.374-0.396-0.164-0.597c0.173-0.165,0.398,0.073,0.54,0.192c0.477,0.4,1,0.712,1.592,0.96
	c-0.468-0.652-0.643-1.479-1.404-1.993c0.163-0.017,0.24-0.042,0.311-0.028c0.112,0.022,0.219,0.068,0.327,0.107
	c1.36,0.483,1.804,1.666,2.163,2.89c0.156,0.533,0.07,1.131,0.41,1.682c0.057-0.145,0.106-0.229,0.123-0.321
	c0.154-0.809,0.285-1.622,0.229-2.45c-0.012-0.183-0.014-0.371,0.199-0.42c0.238-0.055,0.27,0.162,0.326,0.317
	c0.039,0.106,0.08,0.226,0.068,0.333c-0.107,1.024-0.062,2.065-0.526,3.04c-0.244,0.513-0.229,1.062,0.245,1.529
	c0.458,0.451,0.827,0.978,1.38,1.349c0.917,0.617,1.407,1.601,1.95,2.521c0.412,0.701,1.05,1.194,1.544,1.9
	c0.112-0.413-0.104-0.703-0.083-1.024c0.062-0.903-0.385-1.565-1.055-2.112c-0.238-0.194-0.451-0.419-0.691-0.608
	c-0.93-0.728-0.969-1.811-1.206-2.872c0.354,0.128,0.508,0.358,0.645,0.619c0.515,0.984,1.071,1.938,2.054,2.522
	c-0.063-0.586-0.068-1.207-0.209-1.795c-0.231-0.968-0.141-2.01-0.793-2.892c-0.417-0.561-0.656-1.255-0.844-1.945
	c-0.035-0.131-0.106-0.267,0.054-0.354c0.153-0.083,0.26,0.029,0.335,0.139c0.238,0.348,0.497,0.686,0.688,1.059
	c0.446,0.865,1.21,1.609,1.079,2.711c0.183-0.79,0.287-1.566,0.099-2.377c-0.142-0.61-0.267-1.24-0.146-1.879
	c0.029-0.156,0.072-0.326,0.269-0.311c0.201,0.015,0.216,0.2,0.21,0.351c-0.013,0.367-0.002,0.731,0.094,1.086
	c0.305,1.137,0.271,2.27,0.012,3.41c-0.128,0.558-0.32,1.112-0.232,1.7c0.182,1.196,0.244,2.405,0.393,3.602
	C133.794,25.293,134.073,26.041,134.655,26.644z M148.302,36.035c-0.016-0.025-0.033-0.052-0.05-0.079
	c-0.019,0.029-0.053,0.057-0.054,0.086c0,0.031,0.029,0.062,0.047,0.094C148.263,36.104,148.282,36.071,148.302,36.035z
	 M119.101,11.808c-0.012-0.005-0.027-0.019-0.035-0.016c-0.051,0.019-0.051,0.044-0.001,0.064c0.009,0.003,0.026-0.007,0.035-0.016
	C119.104,11.834,119.101,11.819,119.101,11.808z"/>
<g opacity="0.5">
	<path fill="#FFFFFF" d="M17.494,19.921c-0.159,0.204-0.306,0.42-0.479,0.612c-0.206,0.229-0.379,0.549-0.786,0.374
		c-0.451-0.194-0.302-0.563-0.29-0.909c0.018-0.461,0.455-0.561,0.719-0.844c-0.551-0.248-0.936,0.062-1.312,0.297
		c-0.428,0.266-0.844,0.504-1.363,0.541c-0.37,0.025-0.746,0.077-0.836-0.387c-0.098-0.508,0.273-0.756,0.677-0.881
		c0.263-0.081,0.575,0.082,0.892-0.141c-0.859-1.236-2.516-1.06-3.571-2.203c-0.075,1.493-0.999,2.354-1.819,3.237
		c-1.265,1.36-2.889,1.442-4.611,1.187c-1.903-0.284-2.81-1.76-3.634-3.175c-1.583-2.716-1.227-5.582-0.19-8.405
		C1.114,8.61,1.72,8.471,2.034,8.988c1.19,1.959,3.311,2.642,5.029,3.871c0.826,0.591,1.634,1.217,2.616,1.604
		c-0.648-2.548,0.026-4.674,1.954-6.372c1.496-1.318,3.207-2.295,5.051-3.04c1.031-0.416,1.846-1.084,2.229-2.183
		c0.134-0.382,0.277-0.715,0.772-0.673c0.517,0.043,0.49,0.421,0.48,0.777c-0.042,1.472,0.898,2.051,2.104,2.43
		c1.135,0.355,2.324,0.459,3.457,0.848c0.474,0.162,0.936,0.328,1.348,0.592c0.589,0.377,1.23,0.676,1.799,1.059
		c2.223,1.495,3.682,4.842,1.918,7.537c-0.354,0.539-0.657,1.117-1.226,1.475c-0.247,0.155-0.545,0.47-0.771,0.354
		c-0.904-0.463-1.009,0.354-1.389,0.78c-1.277,1.433-2.877,2.017-4.775,1.804c-0.313-0.035-0.742-0.422-0.865,0.378
		c-0.074,0.482-0.514,0.05-0.719-0.135c-0.428-0.382-0.48-1.069-1.144-1.412c0.091,0.749,0.188,1.426,0.248,2.106
		c0.021,0.229,0.15,0.579-0.265,0.622c-0.355,0.035-0.357-0.268-0.473-0.51c-0.255-0.54-0.009-1.123-0.212-1.654
		c-0.067-0.174,0.186-0.561-0.254-0.482c-0.224,0.039-0.469,0.131-0.489,0.504c-0.041,0.734-0.179,1.461-0.252,2.193
		c-0.03,0.296-0.113,0.576-0.422,0.562c-0.316-0.015-0.412-0.368-0.393-0.609c0.035-0.465,0.17-0.921,0.262-1.381
		c0.041-0.137,0.09-0.274-0.028-0.399C17.583,19.729,17.538,19.825,17.494,19.921z M17.026,6.307
		c0.082-0.021,0.16-0.064,0.096-0.152c-0.021-0.029-0.137,0.012-0.208,0.021c-0.104,0.079-0.208,0.157-0.312,0.237
		c-1.379,0.504-2.534,1.34-3.692,2.246c-1.069,0.839-1.796,1.787-2.165,3.072c-0.471,1.638,0.76,3.938,2.375,4.389
		c0.004-0.09,0.027-0.183,0.009-0.264c-0.61-2.617-0.139-4.917,1.798-6.881c0.71-0.721,1.383-1.512,1.889-2.415
		C16.886,6.476,16.956,6.391,17.026,6.307z M19.413,4.902c-0.505,0.954-0.676,1.789-0.35,2.668c0.497,1.34,1.021,2.672,1.532,4.008
		c0.707,1.846,1.105,3.71,0.179,5.601c-0.177,0.358,0.002,0.55,0.164,0.786c0.332,0.482,0.863,0.582,1.37,0.671
		c1.679,0.297,3.213,0.003,4.304-1.429c1.191-1.561,1.214-3.357,0.262-4.984c-0.583-0.997-1.572-1.445-2.445-2.061
		c-0.971-0.685-2.107-1.23-2.853-2.113C20.786,7.115,19.699,6.352,19.413,4.902z M1.411,10.207c-0.83,2.672-0.504,5.079,0.984,7.303
		c0.613,0.914,1.22,1.847,2.451,2.098c1.766,0.361,3.161-0.045,4.289-1.552c0.932-1.242,0.973-1.864-0.348-2.619
		c-1.596-0.913-3.025-2.082-4.657-2.937C3.124,11.973,2.202,11.289,1.411,10.207z M17.706,7.58
		c-0.489,0.576-0.883,1.089-1.328,1.553c-1.534,1.603-2.563,3.338-2.244,5.74c0.273,2.061,1.184,3.082,3.259,3.126
		c1.263,0.026,2.45-0.923,2.69-2.181c0.164-0.854,0.137-1.707-0.135-2.535C19.323,11.371,18.535,9.524,17.706,7.58z M22.091,6.522
		c0.023,0.493,0.303,0.894,0.621,1.026c1.016,0.428,1.721,1.277,2.651,1.825c2.346,1.38,3.911,3.246,3.202,6.259
		c-0.031,0.129-0.172,0.283,0.008,0.387c0.187,0.108,0.326-0.038,0.459-0.154c1.548-1.366,1.684-3.908,0.662-5.436
		c-0.818-1.226-2.056-1.755-3.137-2.557c-0.328-0.243-0.686-0.432-1.091-0.527C24.356,7.082,23.249,6.806,22.091,6.522z"/>
	<path fill="#FFFFFF" d="M26.675,22.74c-0.18-1.544,0.65-2.592,1.752-3.516c1.063-0.892,2.322-1.447,3.537-2.055
		c1.734-0.866,3.378-1.963,5.303-2.395c0.592-0.133,1.15-0.26,1.539-0.804c0.151-0.212,0.441-0.319,0.696-0.091
		c0.227,0.202,0.381,0.448,0.233,0.771c-1.051,2.311-1.119,4.901-2.014,7.252c-0.682,1.79-1.658,3.404-3.434,4.269
		c-1.99,0.968-4.761,0.958-6.576-0.629C26.876,24.812,26.581,23.854,26.675,22.74z M38.118,15.305
		c-2.01,1.021-3.9,1.958-5.767,2.941c-1.104,0.582-2.253,1.079-3.248,1.869c-1.159,0.921-1.52,2.072-1.238,3.504
		c0.19,0.971,0.864,1.416,1.683,1.723c2.132,0.798,5.09,0.137,6.314-2.229c0.641-1.238,1.194-2.465,1.382-3.854
		C37.42,17.959,37.984,16.741,38.118,15.305z"/>
	<path fill="#FFFFFF" d="M17.248,32.469c-1.581-0.006-2.805-0.481-3.979-1.293c-1.451-1.002-2.679-2.258-4.026-3.373
		c-1.194-0.99-1.267-1.548-0.574-2.85c0.107-0.2,0.229-0.244,0.414-0.174c2.768,1.049,5.677,0.693,8.53,0.863
		c0.964,0.057,1.917,0.125,2.835,0.426c1.21,0.396,1.574,1.187,1.137,2.395c-0.363,1.008-0.963,1.875-1.618,2.705
		C19.229,32.101,18.299,32.615,17.248,32.469z M9.798,26.623c1.498,1.303,2.923,2.689,4.572,3.813
		c2.191,1.494,4.064,1.151,5.461-1.073c0.062-0.099,0.124-0.199,0.18-0.303c0.967-1.788,1.021-1.947-1.197-2.135
		c-2.927-0.246-5.88-0.221-8.816-0.432c-0.07-0.172-0.232-0.199-0.33-0.104C9.567,26.488,9.702,26.571,9.798,26.623z"/>
	<path fill="#FFFFFF" d="M17.494,19.921c0.044-0.096,0.089-0.191,0.133-0.287c0.118,0.125,0.069,0.263,0.028,0.399
		C17.603,19.996,17.548,19.959,17.494,19.921z"/>
	<path fill="#FFFFFF" d="M17.026,6.307c-0.07,0.084-0.141,0.169-0.211,0.253c-0.07-0.05-0.142-0.099-0.213-0.147
		c0.104-0.08,0.208-0.158,0.312-0.237C16.947,6.223,16.984,6.267,17.026,6.307z"/>
	<path fill="#FFFFFF" d="M16.914,6.175c0.071-0.009,0.187-0.05,0.208-0.021c0.064,0.088-0.014,0.131-0.096,0.152
		C16.984,6.267,16.947,6.223,16.914,6.175z"/>
	<path fill="#FFFFFF" d="M9.798,26.623c-0.096-0.052-0.23-0.135-0.131-0.232c0.098-0.096,0.26-0.068,0.33,0.104
		C9.931,26.537,9.864,26.58,9.798,26.623z"/>
</g>
<g id="XMLID_1391_" opacity="0.5">
	<path id="XMLID_1393_" fill="#FFFFFF" d="M325.297,27.144c-0.613-1.89-1.33-3.807-0.711-6c0.592-2.095,0.875-4.276,1.378-6.399
		c0.144-0.604,0.562-1.148,0.879-1.706c0.534-0.94,1.106-1.86,1.63-2.807c0.697-1.264,1.252-2.627,2.092-3.786
		c0.404-0.556,1.346-1.082,1.998-1.032c2.399,0.185,4.795,0.546,6.23,2.93c0.168,0.278,0.838,0.421,1.236,0.363
		c2.029-0.298,3.825,0.2,5.428,1.428c0.393,0.301,0.779,0.68,1.014,1.108c1.518,2.772,2.923,5.609,4.517,8.335
		c0.6,1.026,1.501,1.82,2.78,2.281c2.842,1.022,5.572,2.345,8.382,3.46c1.034,0.41,2.182,0.524,3.245,0.872
		c2.076,0.679,4.182,1.309,6.18,2.177c2.275,0.989,3.035,2.816,2.562,5.234c-0.314,1.604-0.524,3.227-0.798,4.838
		c-0.594,3.504-4.631,4.762-7.164,3.893c-2.887-0.99-5.678-2.26-8.504-3.427c-1.936-0.798-3.678-2.069-5.828-2.341
		c-1.689-0.215-3.275-0.182-4.74,0.957c-0.859,0.666-2.012,0.943-2.926,1.554c-0.791,0.529-1.63,1.165-2.107,1.958
		c-1.767,2.935-4.531,4.508-7.523,5.776c-1.174,0.497-3.375-0.606-4.132-2.057c-0.474-0.907-0.66-1.962-1.054-2.919
		c-0.113-0.272-0.473-0.497-0.771-0.627c-0.324-0.141-0.711-0.211-1.065-0.197c-2.198,0.084-3.591-1.48-5.044-2.684
		c-0.65-0.539-0.985-1.957-0.828-2.865c0.305-1.75,0.96-3.465,1.666-5.111C323.805,29.212,324.621,28.214,325.297,27.144z
		 M343.809,23.275c-0.578-0.313-0.947-0.549-1.344-0.721c-1.105-0.48-2.085-1.277-3.465-0.983c-0.943,0.201-1.974,0.253-2.926,0.109
		c-1.66-0.25-3.293-0.693-4.93-1.086c-0.146-0.036-0.238-0.302-0.355-0.461c0.168-0.108,0.354-0.331,0.5-0.307
		c1.061,0.174,2.111,0.411,3.169,0.604c0.886,0.162,1.777,0.29,2.667,0.433c0.049-0.176,0.098-0.352,0.146-0.527
		c-1.939-0.92-3.873-1.855-5.828-2.74c-0.245-0.111-0.636-0.024-0.914,0.086c-0.945,0.375-1.871,0.801-3.01,1.297
		c0.264-1.336,1.258-1.526,2.189-1.853c-0.729-0.342-1.545-0.497-1.25-1.522c1.607,0.22,5.968,2.248,7.674,3.358
		c0.975,0.634,2.098,1.277,3.211,1.397c1.004,0.108,1.898,0.283,2.762,0.756c0.502,0.275,1.008,0.547,1.549,0.84
		c-0.218-2.114-2.895-4.564-5.084-4.949c-0.955-0.168-1.884-0.664-2.745-1.15c-1.746-0.987-3.074-2.646-5.146-3.144
		c-0.357-0.086-0.608-0.62-0.908-0.947c0.114-0.133,0.229-0.266,0.344-0.399c2.492,1.521,4.984,3.042,7.477,4.562
		c0.074-0.091,0.148-0.182,0.223-0.273c-1.07-1.107-2.101-2.258-3.223-3.311c-1.258-1.181-1.074-2.694-1.084-4.164
		c-0.002-0.148,0.435-0.3,0.868-0.58c-0.03,0.95-0.099,1.628-0.056,2.299c0.027,0.438,0.097,0.965,0.356,1.281
		c1.044,1.268,2.271,2.395,3.233,3.717c0.736,1.01,1.799,1.404,2.736,2.06c1.086,0.758,2.023,1.729,3.013,2.596
		c0.146-1.22-0.165-2.111-0.922-2.933c-0.36-0.391-0.659-0.856-0.906-1.329c-0.472-0.901-0.808-1.882-1.349-2.737
		c-0.52-0.822-0.355-1.247,0.526-1.454c-0.269-0.998-0.935-1.116-1.714-0.875c-0.801,0.249-1.365-0.003-1.726-0.714
		c-0.958-1.89-2.376-2.742-4.587-2.548c-1.079,0.095-1.387,0.434-1.669,1.371c-0.245,0.814-0.86,1.518-1.321,2.265
		c-0.148,0.24-0.394,0.437-0.482,0.693c-0.462,1.32-0.876,2.656-1.332,3.978c-0.115,0.335-0.242,0.751-0.502,0.938
		c-1.342,0.962-1.007,2.234-0.826,3.546c0.098,0.715,0.049,1.5-0.146,2.194c-0.224,0.79-0.703,2.777-0.47,3.548
		c0.147,0.488,0.493,1,0.896,1.311c1.534,1.183,3.369,1.628,5.223,2.074c1.319,0.317,2.578,0.423,3.855-0.015
		c4.127-1.414,8.174-1.191,12.097,0.68c2.844,1.355,5.753,2.486,8.839,3.147c0.385,0.082,0.736,0.312,1.107,0.464
		c3.166,1.291,6.285,2.726,9.52,3.813c1.871,0.63,3.139,0.669,4.047-1.106c-3.032,0.09-5.566-1.052-7.826-3.03
		c0.309-0.193,0.655-0.347,0.892-0.244c0.897,0.388,1.728,0.944,2.642,1.276c1.416,0.514,2.882,0.894,4.326,1.33
		c0.063-0.15,0.127-0.303,0.189-0.453c-2.471-1.57-4.942-3.142-7.535-4.79c1.232-0.582,1.371-0.51,7.557,3.586
		c-0.051-0.299-0.139-0.623-0.349-0.781c-0.49-0.367-1.053-0.639-1.563-0.98c-1.31-0.877-2.609-1.771-3.463-3.233
		c0.424-0.042,0.797,0.029,1.09,0.223c1.492,0.99,2.962,2.012,4.439,3.023c0.062-0.066,0.122-0.132,0.183-0.198
		c-0.3-0.4-0.565-0.832-0.905-1.194c-1.53-1.634-3.592-2.064-5.66-2.579c-3.217-0.799-6.45-1.604-9.562-2.726
		c-1.774-0.639-3.307-1.935-4.972-2.893c-1.617-0.929-3.012-2.084-3.748-3.831c-0.887-2.104-1.688-4.246-2.489-6.385
		c-0.429-1.142-1.475-1.495-2.476-0.824c-0.332,0.223-0.761,0.301-1.193,0.463c0.567,1.18,1.15,2.392,1.703,3.54
		c0.07-1.188,0.145-2.443,0.218-3.698c0.197,0,0.396,0,0.593,0.001c0.039,0.582,0.09,1.163,0.115,1.746
		c0.049,1.136,0,2.285,0.15,3.406c0.117,0.874,0.516,1.706,0.72,2.573c0.571,2.424,1.558,4.558,3.659,6.087
		c1.927,1.401,4.119,2.146,6.338,2.87c0.293,0.096,0.555,0.288,0.832,0.436c-0.031,0.109-0.062,0.218-0.093,0.327
		c-0.368-0.007-0.738,0.013-1.103-0.024c-2.806-0.293-5.109-1.708-7.445-3.161c-1.73-1.075-3.682-1.75-5.576-0.139
		c-0.221,0.188-0.403,0.435-0.648,0.574c-0.423,0.239-0.881,0.415-1.324,0.617c-0.07-0.117-0.141-0.234-0.212-0.351
		c0.479-0.498,0.959-0.996,1.438-1.494c-0.073-0.096-0.146-0.192-0.219-0.289c-0.917,0.544-1.861,1.047-2.74,1.646
		c-0.717,0.488-1.352,1.096-2.029,1.643c-0.959,0.773-1.891,0.838-2.446,0.281c0.979-0.575,1.991-1.169,2.976-1.748
		c-1.731-0.217-3.303-0.414-5.127-0.643c0.863-0.769,0.863-0.769,2.875-0.469c-1.329-0.984-2.457-1.863-3.992-1.979
		c-0.199-0.015-0.385-0.2-0.576-0.307c0.16-0.166,0.295-0.426,0.485-0.475c0.261-0.067,0.607-0.058,0.841,0.065
		c1.311,0.69,2.578,1.462,3.902,2.125c0.465,0.233,1.075,0.402,1.564,0.31c1.195-0.224,2.357-0.618,3.533-0.943
		c0.014-0.119,0.025-0.238,0.037-0.357c-0.889-0.21-1.787-0.395-2.664-0.648c-0.221-0.064-0.38-0.347-0.566-0.529
		c0.225-0.102,0.473-0.323,0.672-0.285c0.888,0.171,1.793,0.333,2.632,0.654C341.131,23.454,342.326,23.675,343.809,23.275z
		 M323.222,37.337c0.746,0.072,1.632-0.375,1.927,0.754c0.423,1.62,0.596,1.626,2.326,1.331c0.627-0.107,1.527,0.06,1.965,0.466
		c0.662,0.614,1.035,1.542,1.518,2.346c0.473,0.789,0.797,1.719,1.42,2.359c1.088,1.117,3.064,1.493,3.844-0.806
		c0.443-1.308,0.972-1.546,2.42-1.442c0.268,0.02,0.636-0.094,0.809-0.282c1.051-1.14,1.945-2.448,3.104-3.457
		c1.992-1.736,4.293-2.974,6.965-3.388c2.131-0.331,4.08,0.368,6.047,1.004c0.691,0.223,1.441,0.312,2.086,0.625
		c2.256,1.095,4.452,2.312,6.72,3.381c2.014,0.947,4.084,0.944,6.052-0.176c0.367-0.208,0.562-0.715,1.004-1.307
		c-5.854,1.926-8.4,1.248-9.711-1.117c2.181,0.492,4.141,1.955,6.104,0.764c-2.354-0.924-4.83-1.878-7.293-2.869
		c-1.584-0.637-3.129-1.373-4.723-1.98c-2.345-0.895-4.705-1.75-7.084-2.552c-2.061-0.694-4.12-1.607-6.243-1.835
		c-1.815-0.195-3.794,0.211-5.568,0.769c-2.563,0.806-4.895,0.031-7.262-0.565c-1.124-0.283-2.153-0.947-3.073-1.37
		c-0.289,0.47-0.414,0.884-0.693,1.09c-1.225,0.905-1.958,1.989-1.697,3.597c0.047,0.283-0.078,0.704-0.281,0.898
		C322.78,34.655,322.66,35.893,323.222,37.337z"/>
	<path id="XMLID_1392_" fill="#FFFFFF" d="M338.634,39.107c0.222,0.798,0.378,1.821-0.542,2.597
		c-0.234,0.197-0.631,0.199-0.953,0.292c0.07-0.302,0.113-0.613,0.215-0.904c0.229-0.655,0.488-1.3,0.734-1.948
		c-0.184-0.087-0.367-0.172-0.552-0.259c-0.388,0.679-0.829,1.334-1.153,2.042c-0.537,1.182-1.135,2.215-3.067,1.935
		c0.433-0.419,0.679-0.705,0.972-0.931c0.381-0.293,0.799-0.536,1.3-0.867c-1.2-0.145-2.155-0.236-3.099-0.393
		c-0.171-0.028-0.299-0.318-0.447-0.486c0.191-0.109,0.38-0.303,0.574-0.309c0.357-0.008,0.725,0.068,1.078,0.154
		c1.174,0.285,2.062-0.088,2.829-1.029c0.362-0.445,0.925-0.728,1.417-1.1c-1.56-0.52-3.1-1.316-4.853-0.143
		c-0.876,0.588-1.921,0.453-2.915-0.086c-0.477-0.259-1.113-0.212-1.673-0.328c-0.409-0.085-0.809-0.211-1.212-0.318
		c0.402-0.193,0.794-0.514,1.21-0.549c0.56-0.049,1.227-0.033,1.693,0.229c1.255,0.703,2.37,0.48,3.505-0.204
		c0.248-0.149,0.527-0.245,0.922-0.425c-0.856-0.719-1.669-1.244-2.771-1.306c-0.69-0.038-1.451-0.116-2.061-1.081
		c2.115,0.414,3.985,0.496,5.4,1.938c0.369,0.375,0.867,0.646,1.346,0.889c1.904,0.971,3.424,0.322,4.744-1.184
		c-1.144-0.148-2.266-0.273-3.38-0.454c-0.29-0.047-0.553-0.266-0.828-0.405c0.335-0.146,0.687-0.445,1.002-0.412
		c1.253,0.135,2.495,0.375,3.515,0.539c0.783-0.557,1.425-1.012,2.205-1.564c-1.05,0.01-2.047,0.05-3.043,0.021
		c-1.4-0.039-2.799-0.139-4.199-0.191c-0.607-0.023-1.235-0.09-1.82,0.028c-1.854,0.376-3.675,0.495-5.484-0.203
		c-0.369-0.143-0.787-0.16-1.16-0.295c-0.261-0.095-0.484-0.29-0.725-0.44c0.283-0.154,0.59-0.469,0.847-0.434
		c0.754,0.107,1.479,0.4,2.232,0.533c0.833,0.147,1.682,0.199,2.524,0.293c0.022-0.105,0.045-0.209,0.068-0.314
		c-1.361-0.713-2.722-1.428-4.082-2.142c0.033-0.104,0.068-0.208,0.102-0.313c0.398,0.056,0.82,0.049,1.189,0.183
		c0.473,0.171,0.924,0.425,1.351,0.697c2.989,1.908,6.293,1.884,9.661,1.696c1.253-0.068,2.526,0.206,3.787,0.349
		c1.404,0.159,2.805,0.343,4.205,0.527c0.221,0.029,0.432,0.126,0.75,0.222c-0.191,0.195-0.252,0.316-0.327,0.324
		c-1.833,0.214-3.664,0.465-5.504,0.594c-0.722,0.05-1.142,0.287-1.618,0.841C341.346,36.403,340.015,37.679,338.634,39.107z"/>
</g>
<g id="XMLID_952_" opacity="0.5">
	<path id="XMLID_980_" fill="#FFFFFF" d="M83.778,20.083c0.432-0.372,0.602-0.817,0.85-1.21c0.132-0.21,0.242-0.517,0.494-0.53
		c0.299-0.015,0.242,0.35,0.354,0.541c0.213,0.362,0.326,0.763,0.405,1.173c0.024,0.125,0.065,0.238,0.187,0.355
		c0.101-0.152,0.199-0.293,0.289-0.44c0.062-0.105,0.139-0.176,0.27-0.155c0.137,0.021,0.165,0.123,0.184,0.242
		c0.049,0.332,0.14,0.661,0.153,0.993c0.035,0.873,0.519,1.514,1.058,2.125c0.805,0.911,1.73,1.706,2.496,2.656
		c0.242,0.3,0.633,0.485,0.857,0.794c0.701,0.968,1.318,1.985,1.566,3.186c0.184,0.891,0.32,1.777,0.18,2.692
		c-0.158,1.024-0.856,1.837-1.869,2.228c-0.664,0.256-1.332,0.449-2.021,0.572c-1.155,0.207-2.279,0.162-3.398-0.301
		c-0.59-0.243-1.278-0.186-1.928-0.139c-0.453,0.031-0.927,0.021-1.314-0.172c-0.631-0.316-1.276-0.415-1.965-0.473
		c-0.716-0.06-1.416-0.283-2.131-0.372c-0.725-0.089-1.391-0.382-2.096-0.538c-0.842-0.188-1.602-0.729-2.151-1.438
		c-0.388-0.501-0.728-1.037-0.823-1.706c-0.175-1.222,0.173-2.278,0.898-3.241c0.143-0.189,0.298-0.37,0.38-0.6
		c0.169-0.472,0.542-0.713,0.978-0.911c0.904-0.412,1.773-0.879,2.617-1.419c0.729-0.466,1.433-0.961,2.118-1.479
		c0.966-0.729,1.837-1.571,2.604-2.51c0.127-0.156,0.18-0.373,0.277-0.556c0.066-0.124,0.149-0.255,0.321-0.215
		c0.183,0.042,0.161,0.199,0.161,0.338C83.778,19.713,83.778,19.853,83.778,20.083z M76.029,31.433
		c0.016,0.04-0.013,0.112,0.065,0.102c0.008,0,0.004-0.097,0.006-0.149c-0.084-0.705,0.136-1.321,0.473-1.935
		c0.297-0.542,0.662-1.01,1.07-1.468c0.449-0.504,0.904-0.98,1.475-1.351c0.336-0.218,0.711-0.437,0.934-0.751
		c0.627-0.887,1.336-1.718,1.852-2.682c0.079-0.147,0.152-0.317,0.275-0.416c0.51-0.41,0.771-0.97,1.015-1.549
		c0.063-0.15,0.103-0.354,0.325-0.311c0.193,0.037,0.25,0.215,0.256,0.387c0.012,0.3,0.127,0.55,0.319,0.828
		c0.104-0.786-0.299-1.311-0.681-1.871c-0.16,0.181-0.424,0.364-0.395,0.467c0.123,0.451-0.386,0.632-0.377,1.016
		c0.002,0.056-0.049,0.188-0.157,0.156c-0.103-0.029-0.157-0.115-0.091-0.23c0.037-0.064,0.048-0.129-0.027-0.244
		c-0.412,0.274-0.671,0.729-1.112,0.967c-0.136,0.072,0.056,0.318-0.091,0.449c0.542,0.074,0.141,0.323,0.064,0.459
		c-0.143,0.252-0.312,0.488-0.456,0.744c-0.177,0.314-0.42,0.59-0.73,0.786c-0.077,0.049-0.19,0.167-0.291,0.034
		c-0.084-0.111,0.04-0.164,0.092-0.241c0.354-0.527,0.704-1.057,1.071-1.61c-0.309,0.026-0.422,0.23-0.545,0.433
		c-0.271,0.442-0.584,0.851-1.002,1.166c-0.086,0.064-0.2,0.143-0.293,0.019c-0.084-0.114,0.039-0.147,0.1-0.219
		c0.109-0.127,0.205-0.277,0.234-0.529c-0.348,0.188-0.674,0.3-0.919,0.507c-0.744,0.628-1.649,0.951-2.496,1.385
		c-0.281,0.144-0.636,0.197-0.771,0.521c-0.195,0.472-0.506,0.871-0.795,1.273c-0.35,0.488-0.497,1.028-0.569,1.592
		c-0.152,1.19,0.279,2.165,1.232,2.88c0.142,0.105,0.3,0.684,0.646,0.156c0.002-0.004,0.105,0.071,0.168,0.093
		c0.103,0.034,0.172,0.194,0.332,0.086c-0.332-0.487-0.649-0.973-0.73-1.573c-0.014-0.108-0.113-0.219,0.038-0.266
		c0.129-0.04,0.226,0.045,0.262,0.189C75.863,30.971,75.853,31.232,76.029,31.433z M87.074,23.082
		c-0.022-0.045-0.044-0.091-0.065-0.137c-0.053,0.066-0.039,0.126,0.018,0.182c0.133,0.51,0.26,1.022,0.402,1.529
		c0.039,0.134-0.004,0.224-0.098,0.285c-0.133,0.086-0.201-0.036-0.264-0.124c-0.041-0.056-0.068-0.122-0.092-0.188
		c-0.318-0.923-0.47-1.885-0.661-2.837c-0.016-0.078-0.014-0.178,0.022-0.244c0.221-0.394,0.225-0.392,0.077-0.775
		c-0.569,0.536-0.901,1.249-1.31,1.91c-0.11,0.178-0.211,0.384-0.177,0.584c0.145,0.861,0.284,1.724,0.667,2.527
		c0.264,0.55,0.479,1.123,0.719,1.684c0.298,0.701,0.43,1.489,0.865,2.108c0.48,0.681,0.67,1.369,0.572,2.183
		c-0.026,0.215-0.27,0.529,0.119,0.703c0.01,0.006-0.026,0.156-0.066,0.225c-0.113,0.191-0.24,0.375-0.36,0.562
		c-0.034,0.053-0.119,0.084-0.086,0.163c0.106,0.257,0.11,0.261-0.161,0.323c-0.189,0.043-0.406,0.039-0.426,0.314
		c0.376,0.072,0.682-0.145,1.016-0.216c0.785-0.168,1.543-0.438,2.062-1.115c0.662-0.86,0.703-1.843,0.42-2.822
		c-0.367-1.26-0.837-2.481-1.426-3.667C88.302,25.156,87.612,24.163,87.074,23.082z M81.924,33.36
		c0.024,0.018,0.05,0.034,0.075,0.051c0.002-0.014,0.01-0.031,0.004-0.039c-0.029-0.039-0.059-0.035-0.088,0.003
		c-0.014-0.399-0.163-0.798,0.011-1.196c0.321-0.736,0.55-1.505,0.731-2.287c0.042-0.179,0.152-0.286,0.262-0.41
		c0.063-0.071,0.098-0.199,0.216-0.141c0.102,0.05,0.075,0.188,0.047,0.265c-0.087,0.244-0.216,0.473-0.304,0.716
		c-0.217,0.596-0.43,1.193-0.629,1.796c-0.212,0.642-0.129,1.17,0.538,1.387c0.112,0.037,0.263,0.045,0.31,0.184
		c0.041,0.119,0.14,0.107,0.199,0.078c0.132-0.062,0.006-0.137-0.023-0.192c-0.129-0.247-0.148-0.52-0.107-0.772
		c0.033-0.208-0.07-0.607,0.224-0.582c0.271,0.023,0.035,0.353,0.034,0.54c0,0.39,0.037,0.771,0.367,1.004
		c0.221,0.156,0.742-0.128,1.024-0.493c0.179-0.23,0.358-0.461,0.536-0.692c0.058-0.075,0.109-0.194,0.224-0.109
		c0.091,0.067,0.067,0.179,0.003,0.265c-0.108,0.145-0.229,0.279-0.332,0.428c-0.083,0.12-0.294,0.232-0.206,0.37
		c0.087,0.136,0.263-0.027,0.399-0.056c0.148-0.031,0.295-0.074,0.44-0.119c0.236-0.072,0.499-0.1,0.658-0.32
		c0.646-0.897,0.851-1.848,0.37-2.896c-0.243-0.529-0.447-1.075-0.665-1.616c-0.229-0.57-0.382-1.175-0.755-1.725
		c-0.059,0.291-0.029,0.53,0.062,0.765c0.033,0.085,0.139,0.222,0.035,0.26c-0.326,0.121-0.197,0.381-0.203,0.586
		c-0.012,0.418,0.012,0.839-0.109,1.247c-0.025,0.087-0.029,0.225-0.158,0.207c-0.14-0.021-0.102-0.16-0.076-0.241
		c0.197-0.634-0.164-1.327,0.205-1.943c0.016-0.025-0.003-0.087-0.026-0.115c-0.208-0.244-0.168-0.553-0.203-0.888
		c-0.037,0.075-0.048,0.098-0.06,0.121c-0.088,0.16-0.025,0.518-0.219,0.469c-0.253-0.063-0.094-0.377-0.077-0.583
		c0.044-0.563,0.142-1.126,0.019-1.699c-0.291,0.163-0.291,0.163-0.438-0.568c-0.08,0.021-0.091,0.095-0.12,0.156
		c-0.319,0.634-0.487,1.323-0.729,1.984c-0.386,1.053-0.946,2.034-1.408,3.056c-0.323,0.715-0.832,1.35-0.773,2.245
		C81.249,32.503,81.426,32.981,81.924,33.36z M83.419,21.851c-0.261,0.546-0.673,0.889-0.945,1.309
		c-0.462,0.712-0.977,1.391-1.416,2.113c-0.426,0.702-0.965,1.274-1.635,1.705c-1.084,0.696-1.819,1.655-2.336,2.81
		c-0.328,0.735-0.246,1.466,0.052,2.18c0.095,0.227,0.243,0.453,0.567,0.387c0.145-0.029,0.224,0.049,0.291,0.178
		c0.277,0.52,0.754,0.687,1.318,0.732c-0.053-0.241-0.435-0.443-0.2-0.625c0.169-0.131,0.306,0.248,0.478,0.375
		c0.123,0.09,0.209,0.226,0.326,0.326c0.15,0.131,0.289,0.303,0.535,0.26c-0.152-0.541-0.602-0.938-0.572-1.551
		c0.013-0.27,0.156-0.442,0.221-0.664c0.155-0.545,0.305-1.096,0.523-1.616c0.246-0.587,0.6-1.126,0.809-1.736
		c0.071-0.208,0.223-0.489,0.49-0.402c0.174,0.056,0.188-0.01,0.224-0.097c0.503-1.242,1.249-2.371,1.606-3.688
		C83.954,23.114,83.771,22.54,83.419,21.851z M88.646,24.934c0.377,0.518,0.612,1.049,0.836,1.556
		c0.552,1.251,1.152,2.51,1.327,3.884c0.149,1.172-0.042,2.266-1.075,3.083c-0.401,0.319-0.85,0.534-1.38,0.841
		c0.212-0.023,0.31-0.03,0.404-0.045c0.372-0.055,0.731-0.149,1.085-0.285c0.105-0.041,0.305-0.142,0.363,0.044
		c0.051,0.161-0.144,0.163-0.254,0.206c-0.596,0.234-1.227,0.341-1.846,0.483c-0.137,0.032-0.141,0.086-0.155,0.183
		c-0.015,0.094,0.024,0.132,0.11,0.121c0.467-0.062,0.941-0.092,1.398-0.201c0.547-0.131,1.087-0.283,1.619-0.49
		c0.943-0.367,1.479-0.994,1.605-1.914c0.148-1.08-0.055-2.128-0.373-3.179c-0.139,0.321,0.104,0.615,0.006,0.914
		c-0.031,0.096,0.033,0.255-0.125,0.269c-0.143,0.013-0.162-0.147-0.193-0.238c-0.105-0.302-0.154-0.619-0.148-0.941
		c0.003-0.125-0.016-0.34,0.033-0.359c0.42-0.159,0.088-0.346,0.036-0.519c-0.103-0.346-0.558-0.424-0.628-0.768
		c-0.133-0.656-0.634-0.981-1.099-1.373c-0.071,0.248,0.024,0.438,0.093,0.633c0.076,0.22,0.321,0.339,0.341,0.601
		c0.007,0.085,0.124,0.181,0.019,0.255c-0.119,0.083-0.197-0.032-0.278-0.108c-0.554-0.516-0.657-1.276-1.031-1.888
		C89.167,25.422,89.163,24.986,88.646,24.934z M85.062,19.099c0.028,0.252-0.168,0.473-0.113,0.734
		c0.02,0.097-0.08,0.201-0.139,0.143c-0.359-0.362-0.351,0.146-0.518,0.221c-0.139,0.062-0.28,0.197-0.129,0.404
		c0.206,0.281,0.315,0.61,0.42,1.016c0.049-0.223,0.025-0.363-0.019-0.508c-0.051-0.165-0.044-0.33,0.042-0.488
		c0.086-0.157,0.209-0.123,0.229,0.006c0.051,0.328,0.172,0.652,0.106,0.99c-0.023,0.119-0.091,0.305-0.235,0.209
		c-0.282-0.188-0.197,0.121-0.193,0.151c0.023,0.182,0.093,0.353,0.26,0.493c0.255-0.508,0.505-1.005,0.844-1.448
		c0.059-0.076,0.082-0.144,0.044-0.229C85.42,20.249,85.386,19.635,85.062,19.099z M80.577,33.651
		c-0.009-0.008-0.02-0.025-0.025-0.024c-0.02,0.004-0.037,0.016-0.055,0.024c0.009,0.009,0.02,0.025,0.026,0.025
		C80.542,33.673,80.56,33.661,80.577,33.651z"/>
	<path id="XMLID_979_" fill="#FFFFFF" d="M76.101,31.385c-0.002,0.053,0.002,0.149-0.006,0.149c-0.078,0.011-0.05-0.062-0.065-0.102
		C76.054,31.417,76.077,31.401,76.101,31.385z"/>
	<path id="XMLID_978_" fill="#FFFFFF" d="M87.026,23.127c-0.057-0.056-0.07-0.116-0.018-0.182c0.021,0.045,0.043,0.091,0.065,0.137
		C87.058,23.097,87.042,23.112,87.026,23.127z"/>
	<path id="XMLID_977_" fill="#FFFFFF" d="M81.915,33.375c0.029-0.038,0.059-0.042,0.088-0.003c0.006,0.008-0.002,0.025-0.004,0.039
		c-0.025-0.017-0.051-0.033-0.075-0.05L81.915,33.375z"/>
	<path id="XMLID_976_" fill="#FFFFFF" d="M80.577,33.652c-0.018,0.009-0.035,0.021-0.054,0.024c-0.007,0-0.018-0.017-0.026-0.025
		c0.018-0.009,0.035-0.021,0.055-0.024C80.558,33.626,80.568,33.644,80.577,33.652z"/>
	<path id="XMLID_975_" fill="#FFFFFF" d="M84.447,26.152c-0.072,0.235-0.126,0.465-0.213,0.681c-0.226,0.563-0.46,1.123-0.706,1.678
		c-0.056,0.126-0.129,0.346-0.3,0.274c-0.218-0.092-0.011-0.249,0.021-0.38c0.174-0.728,0.657-1.336,0.792-2.079
		c0.02-0.108,0.072-0.217,0.175-0.273C84.333,25.987,84.431,26,84.447,26.152z"/>
	<path id="XMLID_974_" fill="#FFFFFF" d="M84.794,31.449c-0.027,0.097-0.053,0.219-0.093,0.335c-0.192,0.566-0.393,1.13-0.581,1.697
		c-0.03,0.09-0.055,0.16-0.158,0.137c-0.114-0.025-0.107-0.127-0.082-0.201c0.229-0.66,0.289-1.371,0.631-1.994
		c0.047-0.087,0.074-0.191,0.201-0.167C84.811,31.274,84.776,31.361,84.794,31.449z"/>
	<path id="XMLID_973_" fill="#FFFFFF" d="M84.608,28.924c-0.143,0.692-0.309,1.363-0.58,2.003c-0.033,0.078-0.078,0.111-0.154,0.088
		c-0.078-0.023-0.104-0.087-0.084-0.164c0.177-0.653,0.352-1.307,0.535-1.958c0.021-0.073,0.058-0.179,0.166-0.154
		C84.581,28.76,84.613,28.846,84.608,28.924z"/>
	<path id="XMLID_972_" fill="#FFFFFF" d="M86.132,29.973c0,0.121,0.004,0.149,0,0.177c-0.023,0.141,0.07,0.384-0.122,0.388
		c-0.198,0.004-0.126-0.238-0.128-0.378c-0.004-0.389-0.088-0.766-0.147-1.147c-0.017-0.107-0.075-0.24,0.069-0.287
		c0.165-0.053,0.166,0.113,0.195,0.204C86.12,29.298,86.083,29.688,86.132,29.973z"/>
	<path id="XMLID_971_" fill="#FFFFFF" d="M86.075,22.571c0.032,0.513,0.061,1.026,0.099,1.539c0.007,0.096,0.069,0.199-0.068,0.239
		c-0.122,0.036-0.201-0.061-0.214-0.15c-0.092-0.624-0.354-1.231-0.188-1.883c0.047-0.189,0.124-0.395,0.324-0.358
		c0.2,0.037,0.059,0.263,0.082,0.402c0.012,0.067,0.002,0.139,0.002,0.208C86.101,22.57,86.088,22.571,86.075,22.571z"/>
	<path id="XMLID_970_" fill="#FFFFFF" d="M87.685,25.515c0.129,0.009,0.193,0.088,0.242,0.171c0.376,0.627,0.758,1.25,0.914,1.981
		c0.027,0.129,0.047,0.208-0.083,0.265c-0.142,0.062-0.214-0.039-0.259-0.138c-0.135-0.304-0.279-0.607-0.374-0.924
		c-0.118-0.399-0.259-0.784-0.491-1.13c-0.039-0.058-0.098-0.109-0.043-0.179C87.613,25.532,87.662,25.525,87.685,25.515z"/>
	<path id="XMLID_969_" fill="#FFFFFF" d="M87.399,27.577c-0.021,0.09,0.031,0.2-0.091,0.219c-0.101,0.016-0.138-0.063-0.173-0.144
		c-0.264-0.607-0.466-1.237-0.662-1.868c-0.046-0.146-0.048-0.294,0.121-0.345c0.217-0.065,0.195,0.134,0.232,0.254
		c0.174,0.553,0.346,1.106,0.516,1.66C87.368,27.43,87.384,27.512,87.399,27.577z"/>
	<path id="XMLID_968_" fill="#FFFFFF" d="M88.361,30.603c-0.012,0.057-0.032,0.125-0.038,0.193
		c-0.008,0.087-0.017,0.185-0.121,0.185c-0.136-0.001-0.121-0.118-0.127-0.215c-0.031-0.539-0.145-1.066-0.242-1.596
		c-0.011-0.054-0.01-0.111-0.019-0.166c-0.017-0.112-0.292-0.223-0.017-0.332c0.238-0.094,0.301,0.121,0.326,0.27
		C88.218,29.487,88.283,30.04,88.361,30.603z"/>
	<path id="XMLID_967_" fill="#FFFFFF" d="M89.333,29.899c-0.016,0.215-0.018,0.416-0.219,0.441
		c-0.258,0.033-0.133-0.206-0.182-0.325c-0.169-0.414,0.089-0.859-0.096-1.273c-0.012-0.028,0.037-0.113,0.074-0.127
		c0.1-0.039,0.131,0.047,0.172,0.119C89.302,29.111,89.195,29.553,89.333,29.899z"/>
	<path id="XMLID_966_" fill="#FFFFFF" d="M89.168,31.735c-0.073,0.389-0.119,0.811-0.499,1.082
		c-0.061,0.043-0.119,0.135-0.209,0.057c-0.092-0.08-0.082-0.189,0-0.256c0.303-0.249,0.365-0.605,0.45-0.953
		c0.026-0.105,0.028-0.258,0.175-0.232C89.251,31.46,89.138,31.615,89.168,31.735z"/>
	<path id="XMLID_965_" fill="#FFFFFF" d="M75.616,29.756c-0.031-0.891,0.58-1.469,1.023-2.129c0.045-0.068,0.111-0.123,0.174-0.179
		c0.08-0.072,0.115-0.285,0.27-0.156c0.115,0.097,0.056,0.251-0.031,0.377c-0.475,0.689-1.084,1.303-1.225,2.181
		c-0.01,0.059-0.041,0.151-0.131,0.134C75.554,29.958,75.601,29.843,75.616,29.756z"/>
	<path id="XMLID_964_" fill="#FFFFFF" d="M79.255,25.537c-0.047,0.092-0.068,0.213-0.138,0.255
		c-0.465,0.285-0.745,0.779-1.214,1.054c-0.095,0.055-0.206,0.207-0.32,0.052c-0.086-0.118,0.045-0.199,0.112-0.28
		c0.367-0.442,0.683-0.938,1.26-1.155c0.073-0.027,0.13-0.123,0.22-0.071C79.213,25.415,79.226,25.481,79.255,25.537z"/>
	<path id="XMLID_963_" fill="#FFFFFF" d="M78.032,25.263c0.08,0.004,0.167,0.031,0.182,0.128c0.016,0.113-0.072,0.173-0.158,0.223
		c-0.432,0.249-0.858,0.507-1.234,0.837c-0.115,0.101-0.232,0.198-0.35,0.296c-0.057,0.049-0.101,0.145-0.199,0.072
		c-0.12-0.088-0.032-0.165,0.016-0.247c0.17-0.297,0.439-0.519,0.699-0.707C77.306,25.637,77.612,25.35,78.032,25.263z"/>
	<path id="XMLID_962_" fill="#FFFFFF" d="M74.444,29.933c-0.021-0.694,0.205-1.245,0.482-1.78c0.059-0.111,0.144-0.252,0.284-0.178
		c0.175,0.092,0.017,0.222-0.026,0.319c-0.285,0.646-0.588,1.287-0.426,2.027c0.018,0.078-0.002,0.139-0.083,0.163
		c-0.083,0.024-0.114-0.036-0.157-0.097C74.403,30.222,74.456,30.036,74.444,29.933z"/>
	<path id="XMLID_961_" fill="#FFFFFF" d="M78.737,31.561c-0.023-0.614,0.196-1.06,0.357-1.516c0.048-0.137,0.139-0.255,0.157-0.416
		c0.017-0.149,0.075-0.329,0.229-0.378c0.281-0.09,0.434-0.279,0.543-0.537c0.032-0.076,0.094-0.198,0.221-0.12
		c0.086,0.052,0.066,0.131,0.035,0.221c-0.072,0.211-0.135,0.416-0.302,0.584c-0.64,0.642-0.931,1.438-0.996,2.329
		c-0.007,0.097,0.079,0.257-0.089,0.27c-0.145,0.011-0.143-0.145-0.154-0.252C78.729,31.647,78.737,31.549,78.737,31.561z"/>
	<path id="XMLID_960_" fill="#FFFFFF" d="M79.464,27.824c-0.175-0.025-0.256-0.003-0.291-0.083c-0.035-0.082,0.025-0.129,0.083-0.17
		c0.679-0.489,1.317-1.023,1.903-1.621c0.095-0.096,0.234-0.271,0.389-0.105c0.136,0.146-0.057,0.246-0.123,0.352
		c-0.422,0.67-1.067,1.087-1.717,1.498C79.606,27.759,79.492,27.831,79.464,27.824z"/>
	<path id="XMLID_959_" fill="#FFFFFF" d="M82.412,26.102c-0.173,0.437-0.307,0.942-0.745,1.242
		c-0.134,0.091-0.221,0.164-0.282,0.313c-0.146,0.355-0.485,0.523-0.771,0.741c-0.05,0.038-0.104,0.033-0.153-0.007
		c-0.074-0.062-0.047-0.131,0.01-0.176c0.383-0.303,0.494-0.823,0.783-1.126c0.322-0.336,0.592-0.701,0.879-1.059
		c0.051-0.065,0.111-0.131,0.208-0.089C82.394,25.963,82.43,26.004,82.412,26.102z"/>
	<path id="XMLID_958_" fill="#FFFFFF" d="M77.302,30.822c0.089-0.322,0.107-0.667,0.292-1.007c0.233-0.43,0.394-0.907,0.625-1.346
		c0.045-0.085,0.067-0.188,0.129-0.258c0.077-0.089,0.179-0.227,0.311-0.148c0.178,0.106-0.007,0.21-0.046,0.309
		c-0.263,0.652-0.53,1.299-0.899,1.902c-0.103,0.168-0.11,0.396-0.153,0.599c-0.02,0.094-0.006,0.218-0.146,0.203
		C77.276,31.061,77.306,30.938,77.302,30.822z"/>
	<path id="XMLID_957_" fill="#FFFFFF" d="M83.437,22.962c-0.033,0.083-0.094,0.222-0.145,0.364c-0.179,0.5-0.478,0.937-0.752,1.384
		c-0.062,0.103-0.175,0.229-0.306,0.131c-0.144-0.108,0.04-0.182,0.077-0.27c0.176-0.422,0.363-0.839,0.535-1.262
		c0.075-0.186,0.199-0.333,0.318-0.488c0.047-0.062,0.08-0.158,0.189-0.101C83.423,22.758,83.444,22.823,83.437,22.962z"/>
	<path id="XMLID_956_" fill="#FFFFFF" d="M82.886,25.252c-0.123-0.015-0.162-0.123-0.098-0.2c0.192-0.228,0.259-0.513,0.392-0.767
		c0.067-0.128,0.155-0.172,0.246-0.045C83.541,24.4,83.102,25.225,82.886,25.252z"/>
	<path id="XMLID_955_" fill="#FFFFFF" d="M92.514,31.514c-0.071,0.64-0.305,1.202-0.612,1.734c-0.127,0.222-0.406,0.226-0.602,0.354
		c-0.051,0.033-0.145,0.016-0.177-0.062c-0.036-0.086,0.042-0.133,0.096-0.162c0.638-0.352,0.704-1.016,0.892-1.613
		c0.033-0.105,0.049-0.218,0.095-0.316c0.038-0.082,0.085-0.202,0.206-0.162C92.517,31.321,92.531,31.429,92.514,31.514z"/>
	<path id="XMLID_954_" fill="#FFFFFF" d="M91.606,29.903c-0.032,0.354-0.062,0.685-0.091,1.017
		c-0.007,0.072-0.024,0.151-0.112,0.139c-0.064-0.009-0.125-0.062-0.127-0.143c-0.006-0.236-0.023-0.474-0.01-0.709
		c0.027-0.478-0.083-0.934-0.209-1.385c-0.045-0.156-0.082-0.281,0.09-0.336c0.164-0.054,0.223,0.108,0.248,0.218
		C91.485,29.106,91.604,29.505,91.606,29.903z"/>
	<path id="XMLID_953_" fill="#FFFFFF" d="M90.911,33.247c-0.037-0.018-0.074-0.03-0.104-0.052c-0.056-0.04-0.058-0.12-0.019-0.146
		c0.227-0.146,0.262-0.42,0.422-0.608c0.055-0.063,0.113-0.142,0.207-0.079c0.071,0.047,0.047,0.131,0.014,0.189
		C91.293,32.805,91.192,33.087,90.911,33.247z"/>
</g>
<path opacity="0.5" fill="#FFFFFF" d="M259.371,4.274c0.985-0.443,1.886-1.014,2.428-1.974c0.42-0.742,1.034-1.288,1.635-1.849
	c0.438-0.409,0.926-0.226,1.146,0.376c0.33,0.902,0.15,2.057-0.525,3.262c1.416,0.088,2.729,0.577,4.084,0.879
	c1.08,0.242,2.045,0.814,2.845,1.609c0.846,0.84,1.88,1.454,2.657,2.394c0.801,0.97,1.277,2.106,1.932,3.148
	c1.411,2.25,1.531,4.781,1.505,7.284c-0.021,2.042-0.313,4.094-0.873,6.086c-0.187,0.663-0.598,1.19-0.897,1.784
	c-0.39,0.769-0.693,1.583-1.209,2.282c-0.826,1.119-1.751,2.166-2.969,2.856c-0.977,0.554-1.787,1.349-2.829,1.804
	c-1.915,0.836-3.832,1.658-5.867,2.161c-0.569,0.141-1.178,0.119-1.745,0.12c-2.023,0.006-4.061,0.476-6.074-0.087
	c-0.104-0.029-0.209-0.066-0.303-0.119c-1.723-0.963-3.656-1.483-5.191-2.875c-1.032-0.935-2.258-1.67-3.217-2.72
	c-1.889-2.068-3.598-4.226-4.775-6.824c-1.229-2.714-1.369-5.413-0.808-8.285c0.44-2.247,1.415-4.259,2.331-6.306
	c0.758-1.694,2.287-2.614,3.779-3.566c1.178-0.751,2.477-1.029,3.832-1.079c0.832-0.03,1.681-0.276,2.637,0.251
	c-0.483-1.07-0.67-1.997-0.574-2.979c0.053-0.548,0.167-1.061,0.434-1.549c0.161-0.296,0.371-0.413,0.685-0.338
	c0.343,0.082,0.435,0.349,0.384,0.65c-0.262,1.55,0.806,2.479,1.665,3.477c0.253,0.293,0.624,0.119,0.824-0.272
	c0.45-0.883,0.804-1.825,1.585-2.505c0.475-0.413,0.978-0.589,1.594-0.377c0.547,0.188,0.955,0.472,1.051,1.106
	c0.06,0.395-0.074,0.671-0.332,0.933c-0.352,0.355-0.729,0.69-0.979,1.132c-0.01,0.052-0.02,0.105-0.029,0.157
	C259.261,4.307,259.316,4.291,259.371,4.274z M253.812,4.12c0.308,0.553,0.847,0.848,1.341,1.192
	c0.234,0.164,0.422,0.083,0.518-0.159c0.135-0.337-0.174-0.243-0.322-0.297c-0.533-0.192-1.042-0.422-1.434-0.851
	c-0.098-0.057-0.044-0.305-0.178-0.232C253.623,3.834,253.65,4.03,253.812,4.12z M250.977,33.33
	c0.918,0.821,2.117,1.011,3.136,1.569c1.135,0.622,2.415,0.793,3.654,0.572c1.231-0.218,2.459-0.082,3.687-0.189
	c1.369-0.121,2.646-0.553,3.846-1.059c1.527-0.643,3.066-1.294,4.467-2.292c1.065-0.759,2.096-1.541,2.936-2.499
	c1.039-1.186,1.67-2.681,2.261-4.125c0.784-1.919,0.911-4.031,0.93-6.07c0.021-2.274-0.108-4.595-1.382-6.65
	c-0.705-1.137-1.236-2.37-2.211-3.344c-0.621-0.619-1.378-1.055-1.982-1.681c-0.836-0.867-1.857-1.375-3.041-1.609
	c-0.945-0.188-1.875-0.455-2.814-0.672c-1.236-0.287-2.252,0.458-3.43,0.722c0.137,0.119,0.225,0.21,0.326,0.281
	c0.264,0.18,0.287,0.43,0.186,0.692c-0.121,0.312-0.407,0.276-0.668,0.262c-0.211-0.011-0.357-0.162-0.5-0.286
	c-0.988-0.858-2.152-1.128-3.419-1.008c-0.394,0.037-1.022-0.062-0.671,0.74c0.123,0.28-0.114,0.459-0.404,0.41
	c-0.229-0.039-0.461-0.127-0.665-0.241c-1.593-0.89-3.257-1.217-5.109-1.097c-2.078,0.135-3.628,1.191-5.15,2.384
	c-1.088,0.852-1.478,2.161-2.046,3.351c-0.884,1.848-1.499,3.788-1.745,5.806c-0.315,2.586,0.22,5.05,1.604,7.278
	c0.23,0.373,0.679,0.618,0.86,1.066c0.419,1.034,0.997,1.985,1.835,2.712c1.7,1.475,3.176,3.226,5.207,4.302
	c0.152,0.081,0.275,0.215,0.424,0.303C251.523,33.21,251.266,33.282,250.977,33.33z M259.443,2.207
	c-0.316-0.293-0.59-0.24-0.891,0.041c-0.775,0.722-0.996,1.757-1.589,2.579c0.058,0.044,0.114,0.087,0.171,0.131
	C257.901,4.044,258.668,3.131,259.443,2.207z M263.615,1.743c-0.879,0.763-1.088,1.914-2.054,2.456
	C262.762,4.217,263.662,3.138,263.615,1.743z"/>
<g id="XMLID_1892_" opacity="0.5">
	<path id="XMLID_1899_" fill-rule="evenodd" clip-rule="evenodd" fill="#FFFFFF" d="M444.303,22.207
		c-0.274-1.597-0.499-3.18-0.83-4.741c-0.289-1.363-0.729-2.694-1.043-4.053c-0.297-1.278-0.01-1.828,1.136-2.478
		c0.247-0.14,0.475-0.312,0.715-0.462c1.053-0.661,1.732-0.328,1.835,0.839c0.178-0.325,0.295-0.858,0.604-1.02
		c0.386-0.202,0.933-0.122,1.409-0.119c0.457,0.003,0.928,0.149,1.369,0.082c1.088-0.167,1.729,0.506,2.455,1.111
		c0.657,0.547,1.359,1.063,2.11,1.465c0.546,0.292,0.643,0.74,0.431,1.113c-0.633,1.111-1.407,2.139-2.066,3.236
		c-0.587,0.979-1.116,1.995-1.629,3.016c-0.316,0.632-0.555,1.305-0.764,1.803c0.973,0.775,1.871,1.51,2.788,2.217
		c0.886,0.683,0.979,1.74,1.001,2.656c0.127,5.385,0.134,10.771,0.201,16.157c0.023,1.893,0.15,3.785,0.15,5.678
		c-0.001,2.367-0.035,4.74-0.15,7.104c-0.055,1.123-0.488,2.145-1.37,2.941c-0.796,0.721-2.504,0.789-3.349,0.086
		c-0.416-0.348-0.897-0.631-1.258-1.025c-0.249-0.271-0.4-0.672-0.494-1.041c-0.52-2.027-1.006-4.064-1.508-6.1
		c-0.425-1.723-0.812-3.459-1.294-5.166c-0.444-1.574-0.999-3.115-1.491-4.676c-0.112-0.355-0.142-0.738-0.254-1.096
		c-0.131-0.416-0.319-0.814-0.468-1.227c-0.454-1.261-0.868-2.537-1.361-3.784c-0.526-1.333-0.823-2.692-0.796-4.129
		c0.032-1.768-0.068-3.504,0.607-5.249C441.622,23.713,442.691,22.805,444.303,22.207z M447.418,52.065
		c0.881,0,1.557-0.016,2.23,0.014c0.148,0.006,0.374,0.146,0.413,0.273c0.042,0.133-0.055,0.357-0.162,0.48
		c-0.131,0.146-0.331,0.312-0.511,0.326c-0.958,0.072-0.922,0.812-0.646,1.285c0.534,0.912,0.701,1.867,0.848,2.873
		c0.111,0.756,1.271,1.082,1.87,0.594c1.354-1.105,2.188-3.811,1.685-5.482c-0.185-0.613-0.481-1.111-1.219-1.166
		c-0.201-0.016-0.445-0.076-0.578-0.207c-0.18-0.178-0.271-0.443-0.399-0.67c0.204-0.092,0.403-0.24,0.614-0.26
		c0.422-0.041,0.851-0.012,1.306-0.012c0-2.207,0-4.328,0-6.379c-1.177-0.16-2.284-0.293-3.382-0.477
		c-0.222-0.037-0.411-0.268-0.615-0.408c0.186-0.182,0.344-0.471,0.562-0.527c1.046-0.271,2.106-0.479,3.235-0.726
		c0.102-2.199,0.322-4.53-0.469-6.796c-0.359,0-0.679,0.066-0.948-0.02c-0.232-0.075-0.409-0.324-0.61-0.496
		c0.205-0.145,0.391-0.346,0.618-0.425c0.438-0.153,0.898-0.237,1.446-0.374c-0.141-0.938-0.344-1.754-0.366-2.576
		c-0.028-1.011,0.101-2.025,0.148-3.039c0.034-0.75,0.247-1.572,0.012-2.229c-0.218-0.61-0.68-1.322-1.642-1.289
		c-0.273,0.01-0.686-0.383-0.824-0.687c-0.32-0.698-0.749-0.52-1.248-0.312c-0.438,0.18-0.876,0.437-1.329,0.474
		c-1.094,0.091-2.196,0.071-3.296,0.102c-0.1,0.003-0.238,0.018-0.293,0.083c-1.016,1.192-2.357,2.216-2.116,4.059
		c0.191-0.089,0.385-0.202,0.593-0.271c2.141-0.706,4.273-0.143,6.402,0.094c0.219,0.024,0.391,0.464,0.585,0.712
		c-0.255,0.145-0.497,0.388-0.765,0.417c-1.574,0.173-3.154,0.282-4.729,0.442c-0.819,0.083-1.634,0.227-2.579,0.362
		c0.217,1.005,0.416,1.923,0.598,2.765c0.416-0.081,0.758-0.229,1.078-0.193c1.002,0.114,2.004,0.263,2.99,0.476
		c0.295,0.064,0.536,0.381,0.803,0.582c-0.269,0.203-0.514,0.531-0.808,0.586c-1.036,0.187-2.089,0.279-3.335,0.433
		c0.42,1.108,0.758,2.071,1.163,3.006c0.07,0.161,0.431,0.278,0.655,0.278c1.648-0.007,3.296-0.054,4.943-0.074
		c0.322-0.004,0.654,0.02,0.963,0.099c0.133,0.034,0.324,0.265,0.303,0.368c-0.032,0.158-0.201,0.364-0.354,0.408
		c-0.279,0.081-0.589,0.057-0.886,0.079c-1.647,0.126-3.295,0.253-5.198,0.398c0.339,1.04,0.497,1.953,0.948,2.686
		c0.16,0.259,1.033,0.078,1.58,0.1c0.08,0.003,0.176-0.011,0.237,0.028c0.15,0.092,0.389,0.201,0.399,0.322
		c0.013,0.156-0.118,0.412-0.258,0.48c-0.457,0.221-0.946,0.375-1.496,0.582c0.303,1.283,0.611,2.586,0.922,3.904
		c1.461,0.127,2.887,0.232,4.307,0.391c0.221,0.025,0.414,0.295,0.621,0.451c-0.18,0.158-0.34,0.414-0.541,0.453
		c-1.07,0.209-2.15,0.379-3.23,0.533c-0.452,0.064-0.697,0.254-0.624,0.732C447.159,50.487,447.29,51.271,447.418,52.065z
		 M447.41,11.158c-0.084,0.354-0.255,0.754-0.266,1.158c-0.079,2.997-0.131,5.993-0.175,8.991c-0.004,0.243,0.116,0.488,0.179,0.732
		c0.41-1.027,0.777-2.006,0.852-3.008c0.186-2.539,1.302-4.811,1.914-7.225c0.107-0.428-0.006-0.636-0.434-0.644
		C448.808,11.149,448.135,11.158,447.41,11.158z M448.605,21.942c0.033,0.041,0.066,0.082,0.099,0.123
		c0.241-0.416,0.501-0.823,0.718-1.251c0.629-1.235,1.191-2.506,1.871-3.712c0.59-1.046,1.314-2.015,1.951-3.037
		c0.078-0.126,0.044-0.464-0.058-0.537c-0.688-0.494-1.408-0.943-2.074-1.379C450.271,15.436,449.439,18.689,448.605,21.942z
		 M444.991,11.501c-1.291,0.274-1.677,0.912-1.504,1.625c0.181,0.749,0.406,1.488,0.565,2.241c0.314,1.482,0.604,2.97,0.887,4.458
		c0.158,0.833,0.281,1.673,0.42,2.51c0.129,0.002,0.256,0.005,0.384,0.008c0.062-0.205,0.198-0.417,0.176-0.611
		c-0.076-0.664-0.26-1.317-0.31-1.981c-0.195-2.624-0.354-5.251-0.53-7.876C445.072,11.769,445.031,11.666,444.991,11.501z"/>
	<path id="XMLID_1893_" fill-rule="evenodd" clip-rule="evenodd" fill="#FFFFFF" d="M427.183,22.068
		c0.229-1.992,0.411-3.834,0.661-5.666c0.161-1.188,0.393-2.367,0.645-3.54c0.119-0.561,0.338-1.105,0.561-1.637
		c0.057-0.137,0.285-0.267,0.447-0.282c0.744-0.072,1.494-0.148,2.236-0.114c0.181,0.008,0.477,0.416,0.49,0.653
		c0.055,0.998,0.023,2.001,0.023,2.99c0.418-0.878,0.834-1.765,1.262-2.646c0.396-0.817,0.779-0.88,1.496-0.339
		c0.479,0.36,1.052,0.601,1.514,0.98c0.537,0.439,0.992,0.979,1.496,1.459c0.339,0.322,0.674,0.66,1.062,0.911
		c0.502,0.325,0.645,0.933,0.199,1.324c-1.391,1.22-2.815,2.4-4.195,3.631c-1.198,1.069-2.354,2.187-3.545,3.298
		c1.371,0.482,2.2,1.382,2.725,2.698c0.392,0.982,0.654,1.971,0.354,2.946c-0.327,1.062-0.897,2.051-1.381,3.064
		c-0.312,0.654-0.729,1.27-0.974,1.947c-0.756,2.098-1.41,4.234-2.188,6.323c-0.545,1.464-1.213,2.884-1.857,4.308
		c-0.203,0.453-0.536,0.846-0.762,1.291c-0.213,0.422-0.362,0.877-0.42,1.326c-0.645,0.742-1.355,1.439-1.916,2.24
		c-0.541,0.775-0.945,1.648-1.377,2.496c-0.391,0.768-0.8,1.537-1.088,2.346c-0.595,1.666-1.508,3.104-2.832,4.271
		c-0.729,0.643-2.385,0.195-2.865-0.799c-0.422-0.873-0.662-1.777-0.812-2.773c-0.297-1.979,0.66-3.709,0.744-5.594
		c0.052-1.184,0.464-2.35,0.682-3.527c0.246-1.334,0.424-2.68,0.689-4.007c0.371-1.849,0.826-3.68,1.19-5.529
		c0.288-1.464,0.548-2.938,0.726-4.418c0.261-2.182,0.328-4.393,0.695-6.555c0.208-1.227,0.613-2.5,1.646-3.392
		c0.643-0.556,2.401-0.728,3.189-0.34C426.148,21.631,426.609,21.815,427.183,22.068z M429.1,38.188
		c0.37-0.753,0.743-1.429,1.037-2.136c0.492-1.184,0.408-1.359-0.693-1.959c-0.271-0.148-0.561-0.285-0.785-0.49
		c-0.15-0.137-0.198-0.385-0.292-0.582c0.179-0.085,0.39-0.275,0.532-0.235c0.42,0.12,0.808,0.351,1.219,0.505
		c0.344,0.129,0.745,0.363,1.048,0.283c0.468-0.127,0.561-1.549,0.146-1.863c-0.438-0.331-0.91-0.625-1.392-0.889
		c-0.682-0.374-1.412-0.665-2.066-1.08c-0.206-0.13-0.374-0.576-0.313-0.815c0.098-0.389,0.379-0.414,0.801-0.186
		c0.736,0.398,1.558,0.636,2.334,0.965c0.537,0.227,1.044,0.531,1.592,0.719c0.181,0.062,0.586-0.073,0.652-0.223
		c0.276-0.619,0.554-1.263,0.658-1.926c0.168-1.053-0.065-2.07-0.676-2.967c-0.4-0.588-0.959-0.945-1.672-1.08
		c-0.989-0.187-1.973-0.409-2.873-0.599c-0.223,0.327-0.376,0.553-0.529,0.779c-0.068-0.018-0.136-0.035-0.203-0.051
		c0.148-1.312-0.776-1.571-1.697-1.818c-0.416-0.111-0.84-0.228-1.266-0.249c-0.449-0.023-1.043-0.098-1.326,0.142
		c-0.484,0.41-0.774,1.049-1.217,1.694c1.359,0.255,2.619,0.129,3.356,1.285c-0.481,0.463-0.481,0.453-1.95,0.52
		c-0.264,0.012-0.549,0.099-0.774,0.233c-0.26,0.154-0.465,0.4-0.812,0.713c0,0.866,0.12,1.913-0.038,2.916
		c-0.126,0.8-0.015,1.291,0.706,1.666c0.209,0.109,0.325,0.398,0.484,0.604c-0.249,0.124-0.495,0.346-0.746,0.353
		c-0.576,0.015-0.787,0.289-0.881,0.816c-0.18,0.992-0.432,1.97-0.615,2.961c-0.098,0.529-0.163,1.076-0.145,1.613
		c0.008,0.221,0.225,0.511,0.429,0.635c0.765,0.461,1.572,0.848,2.339,1.305c0.176,0.104,0.25,0.375,0.371,0.568
		c-0.235,0.043-0.498,0.173-0.699,0.109c-0.418-0.129-0.787-0.434-1.208-0.536c-0.656-0.16-1.449-0.47-1.929,0.213
		c-0.363,0.519-0.51,1.212-0.668,1.849c-0.128,0.521-0.078,1.084-0.195,1.607c-0.327,1.471-0.719,2.928-1.043,4.398
		c-0.134,0.604-0.002,1.314-0.271,1.828c-0.52,0.988-0.176,1.42,0.727,1.756c0.155,0.057,0.328,0.4,0.289,0.564
		c-0.046,0.191-0.309,0.465-0.486,0.471c-0.693,0.023-0.97,0.49-1.037,1.02c-0.095,0.746-0.188,1.553,0.002,2.256
		c0.162,0.6,0.612,1.322,1.135,1.574c0.75,0.361,1.348-0.277,1.719-0.943c0.277-0.498,0.459-1.049,0.715-1.561
		c0.613-1.225,1.244-2.439,1.866-3.654c-0.942-0.793-1.856-1.549-2.75-2.33c-0.095-0.082-0.146-0.338-0.087-0.438
		c0.078-0.135,0.316-0.297,0.43-0.264c0.389,0.119,0.772,0.285,1.121,0.494c0.55,0.328,1.069,0.707,1.609,1.07
		c0.23-0.404,0.371-0.646,0.506-0.883c-0.116-0.16-0.285-0.314-0.351-0.506c-0.081-0.234-0.076-0.498-0.108-0.75
		c0.229-0.018,0.459-0.02,0.686-0.053c0.355-0.055,0.966-0.047,1.016-0.207c0.163-0.521,0.234-1.131,0.119-1.66
		c-0.075-0.35-0.529-0.617-0.807-0.912c0.479-0.736,0.977-0.461,1.389-0.037c0.345,0.354,0.45,0.258,0.693-0.104
		c0.564-0.84,1.184-1.645,1.81-2.443c0.379-0.482,0.61-1.879,0.292-2.207c-0.842-0.866-1.748-1.643-2.894-2.104
		c-0.79-0.317-1.565-0.678-2.321-1.069c-0.207-0.106-0.32-0.394-0.478-0.597c0.27-0.123,0.577-0.397,0.802-0.342
		C425.39,36.403,427.498,36.51,429.1,38.188z M429.822,11.83c-0.24,1.22-0.486,2.419-0.712,3.622
		c-0.216,1.154-0.464,2.306-0.603,3.47c-0.13,1.099-0.143,2.211-0.185,3.319c-0.005,0.122,0.122,0.282,0.232,0.358
		c0.048,0.032,0.273-0.077,0.313-0.168c0.475-1.087,1.027-2.154,1.364-3.285c0.364-1.221,0.554-2.5,0.757-3.763
		c0.193-1.2,0.307-2.412,0.47-3.732C430.771,11.726,430.325,11.774,429.822,11.83z M431.191,20.072
		c1.508-2.274,3.955-3.85,5.089-6.383c-0.704-0.514-1.279-0.933-1.907-1.392C433.305,14.909,432.248,17.491,431.191,20.072z
		 M432.494,20.728c0.066-0.028,0.172-0.047,0.24-0.107c0.846-0.736,1.684-1.479,2.525-2.22c0.891-0.785,1.788-1.563,2.674-2.355
		c0.333-0.298,0.236-0.629-0.086-0.829c-0.24-0.149-0.666-0.321-0.826-0.213c-0.326,0.219-0.525,0.623-0.78,0.947
		C434.994,17.541,433.747,19.13,432.494,20.728z"/>
</g>
<g id="XMLID_1701_" opacity="0.5">
	<path id="XMLID_1910_" fill-rule="evenodd" clip-rule="evenodd" fill="#FFFFFF" d="M198.967,22.886
		c0.307-1.083,1.301-2.025,2.137-3.061c0.473-0.586,1.086-1.06,1.632-1.588c0.353-0.341,0.688-0.27,1.019,0.028
		c0.436,0.391,0.896,0.759,1.294,1.186c0.163,0.175,0.188,0.479,0.274,0.725c-0.186,0.064-0.374,0.124-0.558,0.193
		c-0.438,0.167-0.896,0.301-1.308,0.518c-0.496,0.261-0.961,0.585-1.428,0.898c-0.209,0.141-0.408,0.304-0.583,0.486
		c-0.456,0.476-0.896,0.969-1.351,1.464c0.772,0.289,1.661,0.462,2.36,0.924c0.867,0.57,1.588,1.367,2.35,2.089
		c0.485,0.46,0.515,1.081,0.544,1.711c0.027,0.609,0.225,1.219,0.201,1.823c-0.057,1.542-0.684,2.905-1.707,4.021
		c-1.085,1.184-2.293,2.251-3.715,3.051c-0.473,0.267-0.842,0.715-1.312,0.984c-1.071,0.609-2.1,1.275-3.248,1.774
		c-0.977,0.425-1.955,0.376-2.927,0.565c-0.3,0.059-0.595,0.221-0.89,0.216c-0.934-0.016-1.73-0.419-2.452-0.989
		c-1.47-1.16-1.36-2.803-1.271-4.396c0.064-1.162,0.292-2.316,0.446-3.475c0.156-1.173,0.263-2.355,0.479-3.517
		c0.232-1.244,0.449-2.515,0.904-3.684c0.287-0.74,0.978-1.333,1.526-1.958c0.359-0.409,0.765-0.789,1.196-1.122
		c0.293-0.227,0.657-0.375,1.008-0.511c0.986-0.383,1.988-0.182,2.924,0.123c0.566,0.185,1.022,0.697,1.545,1.036
		C198.37,22.602,198.715,22.753,198.967,22.886z M198.938,24.069c-0.886-0.665-1.766-1.345-2.671-1.987
		c-0.173-0.122-0.452-0.092-0.682-0.133c-0.033,0.477-0.438,0.248-0.668,0.349c-0.258,0.112-0.531,0.195-0.775,0.331
		c-0.489,0.273-0.849,0.169-1.056-0.403c-0.748,0.776-1.614,1.441-2.159,2.307c-0.533,0.848-0.74,1.901-1.04,2.722
		c0.487,0.131,0.844,0.228,1.146,0.309c-0.1,0.389-0.133,0.625-0.221,0.838c-0.178,0.437-0.374,0.867-0.59,1.286
		c-0.035,0.069-0.225,0.124-0.31,0.094c-0.503-0.175-0.491,0.128-0.512,0.479c-0.069,1.176-0.022,2.381-0.285,3.514
		c-0.28,1.207-0.294,2.397-0.288,3.605c0.002,0.379,0.107,0.76,0.166,1.139c0.153-0.402,0.138-0.795,0.225-1.163
		c0.049-0.202,0.268-0.365,0.41-0.546c0.174,0.187,0.475,0.359,0.494,0.561c0.057,0.598-0.005,1.205-0.001,1.808
		c0.001,0.155,0.022,0.387,0.121,0.451c0.298,0.194,0.638,0.323,0.931,0.464c0.127-0.197,0.195-0.389,0.33-0.488
		c0.158-0.117,0.371-0.169,0.567-0.227c0.284-0.082,0.573-0.143,0.859-0.213c0.059,0.238,0.116,0.479,0.2,0.827
		c0.408-0.08,0.9-0.13,1.359-0.28c0.469-0.153,0.904-0.406,1.377-0.625c-0.438-0.154-0.516-0.479-0.254-0.763
		c0.428-0.467,0.906-0.897,1.416-1.272c0.245-0.182,0.607-0.204,0.918-0.297c0.042,0.303,0.086,0.605,0.125,0.908
		c0.008,0.051,0.002,0.104,0.002,0.317c0.512-0.37,0.938-0.669,1.354-0.979c0.208-0.154,0.561-0.32,0.57-0.498
		c0.039-0.713,0.531-1.129,0.924-1.605c0.549-0.666,0.958-0.763,1.873-0.454c0.391-0.56,0.783-1.157,1.211-1.727
		c0.848-1.126,0.785-2.425,0.729-3.723c-0.003-0.078-0.105-0.147-0.143-0.229c-0.118-0.258-0.233-0.519-0.335-0.783
		c-0.098-0.251-0.178-0.508-0.266-0.763c-0.092,0.032-0.184,0.064-0.275,0.096c0.354-0.558-0.076-0.688-0.338-0.973
		c-0.783-0.856-1.729-1.395-2.839-1.652c-0.579-0.135-1.176-0.193-1.796-0.29C198.799,24.308,198.862,24.2,198.938,24.069z
		 M204.115,19.661c-0.156-0.169-0.316-0.384-0.518-0.548c-0.223-0.181-0.477-0.373-0.752-0.049
		c-0.922,1.076-1.848,2.148-2.763,3.229c-0.053,0.062-0.028,0.19-0.038,0.288C201.15,21.213,202.729,20.568,204.115,19.661z"/>
	<path id="XMLID_1909_" fill-rule="evenodd" clip-rule="evenodd" fill="#FFFFFF" d="M198.219,31.255
		c0.334,0.097,0.654,0.184,0.97,0.281c0.396,0.122,0.538,0.612,0.263,0.916c-0.391,0.428-0.766,0.877-1.197,1.26
		c-0.221,0.195-0.544,0.357-0.832,0.379c-0.475,0.033-0.579-0.232-0.371-0.666c0.252-0.523,0.426-1.076,0.963-1.428
		C198.165,31.897,198.146,31.539,198.219,31.255z"/>
	<path id="XMLID_1908_" fill-rule="evenodd" clip-rule="evenodd" fill="#FFFFFF" d="M192.465,30.803
		c0.121-0.978,0.537-1.89,1.699-1.828c0.168,0.009,0.373,0.15,0.475,0.292c0.073,0.101,0.045,0.322-0.012,0.46
		c-0.18,0.444-0.398,0.872-0.59,1.312c-0.201,0.462-0.489,0.892-1.031,0.634C192.746,31.549,192.641,31.103,192.465,30.803z"/>
	<path id="XMLID_1907_" fill-rule="evenodd" clip-rule="evenodd" fill="#FFFFFF" d="M192.365,36.784
		c0.289-0.488,0.531-0.955,0.83-1.381c0.185-0.262,0.51-0.431,0.674-0.701c0.266-0.439,0.605-0.05,0.891-0.147
		c0.068,0.245,0.212,0.496,0.193,0.733c-0.074,0.908-0.844,1.724-1.674,1.77C193.034,37.071,192.779,36.915,192.365,36.784z"/>
	<path id="XMLID_1906_" fill-rule="evenodd" clip-rule="evenodd" fill="#FFFFFF" d="M189.312,33.641
		c0.136-0.415,0.254-0.835,0.413-1.239c0.142-0.365,0.723-0.525,1.212-0.39c0.486,0.136,0.466,0.553,0.363,0.854
		c-0.166,0.485-0.434,0.946-0.723,1.374c-0.158,0.234-0.492,0.566-0.673,0.525c-0.394-0.089-0.534-0.492-0.493-0.912
		c0.006-0.059,0-0.119,0-0.178C189.379,33.663,189.346,33.651,189.312,33.641z"/>
	<path id="XMLID_1905_" fill-rule="evenodd" clip-rule="evenodd" fill="#FFFFFF" d="M203.305,29.595
		c-0.297,0.437,0.238,1.248-0.41,1.684c-0.347,0.234-0.838,0.255-1.265,0.372c-0.041-0.213-0.187-0.547-0.106-0.616
		c0.512-0.438,0.391-1.046,0.51-1.586c0.085-0.392,0.252-0.707,0.716-0.685C203.178,28.785,203.377,29.026,203.305,29.595z"/>
	<path id="XMLID_1705_" fill-rule="evenodd" clip-rule="evenodd" fill="#FFFFFF" d="M197.082,23.635
		c0.316,0.078,0.566,0.091,0.758,0.203c0.138,0.081,0.259,0.289,0.271,0.449c0.009,0.112-0.161,0.26-0.279,0.356
		c-0.498,0.405-0.992,0.817-1.518,1.183c-0.207,0.144-0.492,0.175-0.742,0.257c0.039-0.234,0.027-0.494,0.127-0.699
		c0.239-0.489,0.503-0.973,0.814-1.417C196.635,23.793,196.913,23.729,197.082,23.635z"/>
	<path id="XMLID_1704_" fill-rule="evenodd" clip-rule="evenodd" fill="#FFFFFF" d="M198.236,26.569
		c0.225,0.144,0.627,0.28,0.797,0.558c0.099,0.164-0.119,0.594-0.295,0.831c-0.274,0.372-0.612,0.707-0.97,1
		c-0.095,0.078-0.472,0.009-0.53-0.096c-0.346-0.631-0.051-1.761,0.525-2.196C197.849,26.605,197.989,26.617,198.236,26.569z"/>
	<path id="XMLID_1703_" fill-rule="evenodd" clip-rule="evenodd" fill="#FFFFFF" d="M193.856,23.979
		c0.292,0.342,0.583,0.568,0.707,0.863c0.125,0.298,0.077,0.645-0.312,0.839c-0.285,0.142-0.522,0.374-0.803,0.53
		c-0.158,0.088-0.431,0.196-0.523,0.126c-0.131-0.101-0.228-0.374-0.191-0.542c0.085-0.403,0.214-0.812,0.408-1.173
		C193.264,24.398,193.537,24.257,193.856,23.979z"/>
	<path id="XMLID_1702_" fill-rule="evenodd" clip-rule="evenodd" fill="#FFFFFF" d="M200.564,27.464
		c-0.027-0.458-0.038-0.917-0.089-1.372c-0.043-0.389,0.192-0.465,0.484-0.498c0.511-0.057,1.039,0.229,0.948,0.592
		c-0.142,0.574-0.428,1.12-0.713,1.645c-0.066,0.124-0.387,0.192-0.555,0.148c-0.102-0.026-0.133-0.319-0.195-0.493
		C200.484,27.48,200.524,27.472,200.564,27.464z"/>
</g>
</svg>
