<?xml version="1.0" encoding="utf-8"?>
<!-- Generator: Adobe Illustrator 15.1.0, SVG Export Plug-In . SVG Version: 6.00 Build 0)  -->
<!DOCTYPE svg PUBLIC "-//W3C//DTD SVG 1.1//EN" "http://www.w3.org/Graphics/SVG/1.1/DTD/svg11.dtd">
<svg version="1.1" id="Layer_1" xmlns="http://www.w3.org/2000/svg" xmlns:xlink="http://www.w3.org/1999/xlink" x="0px" y="0px"
	 width="567.049px" height="121.389px" viewBox="0 0 567.049 121.389" enable-background="new 0 0 567.049 121.389"
	 xml:space="preserve">
<path d="M11.38,0h45.556c6.285,0,11.38,5.095,11.38,11.38v98.628c0,6.286-5.095,11.38-11.38,11.38H11.38
	c-6.286,0-11.38-5.094-11.38-11.38V11.38C0,5.095,5.094,0,11.38,0z M7.586,110.009c0,2.094,1.7,3.793,3.793,3.793h45.556
	c2.094,0,3.793-1.699,3.793-3.793V11.38c0-2.094-1.7-3.793-3.793-3.793H11.38c-2.094,0-3.793,1.699-3.793,3.793V110.009z
	 M34.152,94.856c4.182,0,7.568,3.39,7.568,7.566s-3.387,7.567-7.568,7.567c-4.183,0-7.568-3.391-7.568-7.567
	S29.969,94.856,34.152,94.856z M26.565,11.38h15.173c2.094,0,3.794,1.699,3.794,3.793c0,2.094-1.7,3.793-3.794,3.793H26.565
	c-2.094,0-3.793-1.699-3.793-3.793C22.771,13.08,24.471,11.38,26.565,11.38z"/>
<path d="M244.636,110.818h-3.921c-16.123,0-29.747-14.641-29.747-31.972c0-14.158,8.845-26.658,21.1-30.576
	c1.528-24.62,19.31-43.49,44.724-43.49c19.97,0,33.193,10.339,39.344,26.662l0,0c19.946,2.146,35.901,18.412,35.906,38.773
	c0,18.939-12.714,40.008-34.767,40.59v0.014 M317.275,101.997h1.255c15.084,0,25.046-16.751,25.046-31.783
	c0-16.518-14.366-29.811-30.748-30.155l-3.181-0.068l-0.941-3.037c-4.555-14.723-14.396-23.354-31.914-23.354
	c-21.857,0-35.998,16.204-36,37.688l0.033,0.051l0.357,4.044l-4.002,0.69c-9.754,1.675-17.53,11.681-17.53,22.771
	c0,12.55,9.721,23.151,21.064,23.151h3.921"/>
<g>
	<path d="M285.145,66.984v3.86c0,5.257-2.358,9.492-7.072,12.704c-2.483,1.481-5.039,2.222-7.667,2.222h-0.375
		c-4.632,0-8.598-2.024-11.893-6.07c-1.897-2.838-2.847-5.582-2.847-8.231V56.042c0.02-0.084,0.062-0.125,0.125-0.125h7.666
		c0.084,0.021,0.126,0.063,0.126,0.125v13.55c0,2.629,0.5,4.476,1.501,5.539c1.503,1.773,3.275,2.66,5.321,2.66h0.312
		c2.731,0,4.84-1.408,6.321-4.225c0.333-0.958,0.5-1.824,0.5-2.597v-3.984"/>
	<path d="M277.159,70.828v-3.859c0-5.258,2.359-9.493,7.073-12.705c2.482-1.481,5.039-2.222,7.666-2.222h0.376
		c4.631,0,8.597,2.024,11.893,6.071c1.898,2.837,2.847,5.58,2.847,8.23v15.427c-0.021,0.084-0.062,0.126-0.125,0.126h-7.667
		c-0.084-0.021-0.126-0.063-0.126-0.126v-13.55c0-2.627-0.499-4.474-1.501-5.539c-1.502-1.773-3.276-2.659-5.32-2.659h-0.312
		c-2.732,0-4.841,1.408-6.322,4.224c-0.333,0.959-0.5,1.825-0.5,2.597v3.985"/>
</g>
<g>
	<path d="M546.86,46.767c0.744-0.744,1.951-0.744,2.695,0c0.742,0.745,0.742,1.951,0,2.694l-18.979,19.095
		c-0.066,0.097-0.139,0.19-0.225,0.276c-0.746,0.743-1.951,0.743-2.695,0l-9.43-9.43c-0.742-0.744-0.742-1.95,0-2.693
		c0.746-0.744,1.951-0.744,2.695,0l8.053,8.053L546.86,46.767L546.86,46.767z"/>
	<path d="M510.114,0h45.555c6.285,0,11.381,5.095,11.381,11.38v98.628c0,6.286-5.096,11.38-11.381,11.38h-45.555
		c-6.286,0-11.381-5.094-11.381-11.38V11.38C498.733,5.095,503.828,0,510.114,0z M506.32,110.009c0,2.094,1.7,3.793,3.794,3.793
		h45.555c2.094,0,3.794-1.699,3.794-3.793V11.38c0-2.094-1.7-3.793-3.794-3.793h-45.555c-2.094,0-3.794,1.699-3.794,3.793V110.009z
		 M532.885,94.856c4.182,0,7.568,3.39,7.568,7.566s-3.388,7.567-7.568,7.567c-4.183,0-7.568-3.391-7.568-7.567
		S528.703,94.856,532.885,94.856z M525.298,11.38h15.173c2.095,0,3.795,1.699,3.795,3.793c0,2.094-1.7,3.793-3.795,3.793h-15.173
		c-2.094,0-3.794-1.699-3.794-3.793C521.504,13.08,523.205,11.38,525.298,11.38z"/>
</g>
<path d="M137.945,77.981c-1.105-1.104-1.105-2.896,0-4l10.233-10.233h-31.865c-1.562,0-2.829-1.268-2.829-2.829
	s1.266-2.828,2.829-2.828h32.043l-10.41-10.409c-1.105-1.104-1.105-2.896,0-4c0.553-0.553,1.275-0.829,2-0.829
	c0.724,0,1.447,0.276,2,0.829l16.708,17.15l-16.708,17.149C140.84,79.086,139.051,79.086,137.945,77.981L137.945,77.981z"/>
<path d="M431.525,77.981c-1.105-1.104-1.105-2.896,0-4l10.232-10.233h-31.864c-1.562,0-2.829-1.268-2.829-2.829
	s1.267-2.828,2.829-2.828h32.043l-10.41-10.409c-1.104-1.104-1.104-2.896,0-4c0.553-0.553,1.275-0.829,2-0.829
	c0.724,0,1.446,0.276,2,0.829l16.708,17.15l-16.708,17.149C434.419,79.086,432.63,79.086,431.525,77.981L431.525,77.981z"/>
<path d="M46.788,51.608c3.508,0,6.353,2.882,6.354,6.398c0,3.517-2.845,6.337-6.353,6.337c-0.211,0-1.192-0.006-2.155-0.014
	l-0.002,1.09c0,3.517-2.818,6.367-6.334,6.367H25.541c-3.517,0-6.367-2.851-6.367-6.367v-15.95c0-1.172,0.95-2.122,2.122-2.122
	l21.241,0.005c1.172,0,2.123,0.95,2.123,2.123l-0.004,2.121C45.621,51.603,46.512,51.608,46.788,51.608L46.788,51.608z
	 M42.537,49.476l-21.244-0.007l0.003,15.95c0,2.341,1.904,4.245,4.245,4.245h12.756c2.342,0,4.212-1.904,4.212-4.245L42.537,49.476z
	 M46.788,62.251c2.425,0,4.265-1.848,4.265-4.278s-1.841-4.24-4.266-4.24c-0.277,0-1.17-0.005-2.136-0.012l-0.015,8.518
	C45.598,62.245,46.578,62.251,46.788,62.251L46.788,62.251z M37.214,44.179v-5.306c0-0.586,0.476-1.062,1.062-1.062
	c0.585,0,1.061,0.476,1.061,1.062v5.306c0,0.586-0.476,1.061-1.061,1.061C37.689,45.24,37.214,44.765,37.214,44.179z M24.479,44.179
	v-5.306c0-0.586,0.475-1.062,1.061-1.062c0.585,0,1.061,0.476,1.061,1.062v5.306c0,0.586-0.476,1.061-1.061,1.061
	C24.955,45.24,24.479,44.765,24.479,44.179z M30.847,44.179v-5.306c0-0.586,0.475-1.062,1.061-1.062s1.062,0.476,1.062,1.062v5.306
	c0,0.586-0.476,1.061-1.062,1.061S30.847,44.765,30.847,44.179z"/>
</svg>
